G04 #@! TF.GenerationSoftware,KiCad,Pcbnew,5.0.0*
G04 #@! TF.CreationDate,2018-11-11T14:48:16-05:00*
G04 #@! TF.ProjectId,Pi-Temp_Humidity,50692D54656D705F48756D6964697479,rev?*
G04 #@! TF.SameCoordinates,Original*
G04 #@! TF.FileFunction,Soldermask,Top*
G04 #@! TF.FilePolarity,Negative*
%FSLAX46Y46*%
G04 Gerber Fmt 4.6, Leading zero omitted, Abs format (unit mm)*
G04 Created by KiCad (PCBNEW 5.0.0) date Sun Nov 11 14:48:16 2018*
%MOMM*%
%LPD*%
G01*
G04 APERTURE LIST*
%ADD10C,1.500000*%
%ADD11C,0.500000*%
%ADD12C,0.100000*%
%ADD13C,0.365000*%
%ADD14R,2.100000X2.100000*%
%ADD15O,2.100000X2.100000*%
%ADD16C,1.375000*%
G04 APERTURE END LIST*
D10*
G04 #@! TO.C,REF\002A\002A*
X204724000Y-91440000D03*
G04 #@! TD*
D11*
G04 #@! TO.C,JP2*
X197104000Y-91074000D03*
D12*
G36*
X196157843Y-90534982D02*
X196169224Y-90497463D01*
X196187706Y-90462886D01*
X196212579Y-90432579D01*
X196242886Y-90407706D01*
X196277463Y-90389224D01*
X196314982Y-90377843D01*
X196354000Y-90374000D01*
X196604000Y-90374000D01*
X196604000Y-90174000D01*
X196607843Y-90134982D01*
X196619224Y-90097463D01*
X196637706Y-90062886D01*
X196662579Y-90032579D01*
X196692886Y-90007706D01*
X196727463Y-89989224D01*
X196764982Y-89977843D01*
X196804000Y-89974000D01*
X197404000Y-89974000D01*
X197443018Y-89977843D01*
X197480537Y-89989224D01*
X197515114Y-90007706D01*
X197545421Y-90032579D01*
X197570294Y-90062886D01*
X197588776Y-90097463D01*
X197600157Y-90134982D01*
X197604000Y-90174000D01*
X197604000Y-90374000D01*
X197854000Y-90374000D01*
X197893018Y-90377843D01*
X197930537Y-90389224D01*
X197965114Y-90407706D01*
X197995421Y-90432579D01*
X198020294Y-90462886D01*
X198038776Y-90497463D01*
X198050157Y-90534982D01*
X198054000Y-90574000D01*
X198054000Y-91074000D01*
X198053398Y-91080112D01*
X198053398Y-91098534D01*
X198052435Y-91118140D01*
X198047625Y-91166971D01*
X198044746Y-91186380D01*
X198035174Y-91234505D01*
X198030404Y-91253548D01*
X198016160Y-91300503D01*
X198009549Y-91318980D01*
X197990772Y-91364313D01*
X197982377Y-91382061D01*
X197959246Y-91425334D01*
X197949160Y-91442162D01*
X197921900Y-91482961D01*
X197910205Y-91498730D01*
X197879077Y-91536659D01*
X197865897Y-91551200D01*
X197831200Y-91585897D01*
X197816659Y-91599077D01*
X197778730Y-91630205D01*
X197762961Y-91641900D01*
X197722162Y-91669160D01*
X197705334Y-91679246D01*
X197662061Y-91702377D01*
X197644313Y-91710772D01*
X197598980Y-91729549D01*
X197580503Y-91736160D01*
X197533548Y-91750404D01*
X197514505Y-91755174D01*
X197466380Y-91764746D01*
X197446971Y-91767625D01*
X197398140Y-91772435D01*
X197378534Y-91773398D01*
X197360112Y-91773398D01*
X197354000Y-91774000D01*
X196854000Y-91774000D01*
X196847888Y-91773398D01*
X196829466Y-91773398D01*
X196809860Y-91772435D01*
X196761029Y-91767625D01*
X196741620Y-91764746D01*
X196693495Y-91755174D01*
X196674452Y-91750404D01*
X196627497Y-91736160D01*
X196609020Y-91729549D01*
X196563687Y-91710772D01*
X196545939Y-91702377D01*
X196502666Y-91679246D01*
X196485838Y-91669160D01*
X196445039Y-91641900D01*
X196429270Y-91630205D01*
X196391341Y-91599077D01*
X196376800Y-91585897D01*
X196342103Y-91551200D01*
X196328923Y-91536659D01*
X196297795Y-91498730D01*
X196286100Y-91482961D01*
X196258840Y-91442162D01*
X196248754Y-91425334D01*
X196225623Y-91382061D01*
X196217228Y-91364313D01*
X196198451Y-91318980D01*
X196191840Y-91300503D01*
X196177596Y-91253548D01*
X196172826Y-91234505D01*
X196163254Y-91186380D01*
X196160375Y-91166971D01*
X196155565Y-91118140D01*
X196154602Y-91098534D01*
X196154602Y-91080112D01*
X196154000Y-91074000D01*
X196154000Y-90574000D01*
X196157843Y-90534982D01*
X196157843Y-90534982D01*
G37*
D11*
X197104000Y-89774000D03*
D12*
G36*
X196154602Y-89767888D02*
X196154602Y-89749466D01*
X196155565Y-89729860D01*
X196160375Y-89681029D01*
X196163254Y-89661620D01*
X196172826Y-89613495D01*
X196177596Y-89594452D01*
X196191840Y-89547497D01*
X196198451Y-89529020D01*
X196217228Y-89483687D01*
X196225623Y-89465939D01*
X196248754Y-89422666D01*
X196258840Y-89405838D01*
X196286100Y-89365039D01*
X196297795Y-89349270D01*
X196328923Y-89311341D01*
X196342103Y-89296800D01*
X196376800Y-89262103D01*
X196391341Y-89248923D01*
X196429270Y-89217795D01*
X196445039Y-89206100D01*
X196485838Y-89178840D01*
X196502666Y-89168754D01*
X196545939Y-89145623D01*
X196563687Y-89137228D01*
X196609020Y-89118451D01*
X196627497Y-89111840D01*
X196674452Y-89097596D01*
X196693495Y-89092826D01*
X196741620Y-89083254D01*
X196761029Y-89080375D01*
X196809860Y-89075565D01*
X196829466Y-89074602D01*
X196847888Y-89074602D01*
X196854000Y-89074000D01*
X197354000Y-89074000D01*
X197360112Y-89074602D01*
X197378534Y-89074602D01*
X197398140Y-89075565D01*
X197446971Y-89080375D01*
X197466380Y-89083254D01*
X197514505Y-89092826D01*
X197533548Y-89097596D01*
X197580503Y-89111840D01*
X197598980Y-89118451D01*
X197644313Y-89137228D01*
X197662061Y-89145623D01*
X197705334Y-89168754D01*
X197722162Y-89178840D01*
X197762961Y-89206100D01*
X197778730Y-89217795D01*
X197816659Y-89248923D01*
X197831200Y-89262103D01*
X197865897Y-89296800D01*
X197879077Y-89311341D01*
X197910205Y-89349270D01*
X197921900Y-89365039D01*
X197949160Y-89405838D01*
X197959246Y-89422666D01*
X197982377Y-89465939D01*
X197990772Y-89483687D01*
X198009549Y-89529020D01*
X198016160Y-89547497D01*
X198030404Y-89594452D01*
X198035174Y-89613495D01*
X198044746Y-89661620D01*
X198047625Y-89681029D01*
X198052435Y-89729860D01*
X198053398Y-89749466D01*
X198053398Y-89767888D01*
X198054000Y-89774000D01*
X198054000Y-90274000D01*
X198050157Y-90313018D01*
X198038776Y-90350537D01*
X198020294Y-90385114D01*
X197995421Y-90415421D01*
X197965114Y-90440294D01*
X197930537Y-90458776D01*
X197893018Y-90470157D01*
X197854000Y-90474000D01*
X196354000Y-90474000D01*
X196314982Y-90470157D01*
X196277463Y-90458776D01*
X196242886Y-90440294D01*
X196212579Y-90415421D01*
X196187706Y-90385114D01*
X196169224Y-90350537D01*
X196157843Y-90313018D01*
X196154000Y-90274000D01*
X196154000Y-89774000D01*
X196154602Y-89767888D01*
X196154602Y-89767888D01*
G37*
G04 #@! TD*
D11*
G04 #@! TO.C,JP4*
X186944000Y-82946000D03*
D12*
G36*
X185997843Y-82406982D02*
X186009224Y-82369463D01*
X186027706Y-82334886D01*
X186052579Y-82304579D01*
X186082886Y-82279706D01*
X186117463Y-82261224D01*
X186154982Y-82249843D01*
X186194000Y-82246000D01*
X187694000Y-82246000D01*
X187733018Y-82249843D01*
X187770537Y-82261224D01*
X187805114Y-82279706D01*
X187835421Y-82304579D01*
X187860294Y-82334886D01*
X187878776Y-82369463D01*
X187890157Y-82406982D01*
X187894000Y-82446000D01*
X187894000Y-82946000D01*
X187893398Y-82952112D01*
X187893398Y-82970534D01*
X187892435Y-82990140D01*
X187887625Y-83038971D01*
X187884746Y-83058380D01*
X187875174Y-83106505D01*
X187870404Y-83125548D01*
X187856160Y-83172503D01*
X187849549Y-83190980D01*
X187830772Y-83236313D01*
X187822377Y-83254061D01*
X187799246Y-83297334D01*
X187789160Y-83314162D01*
X187761900Y-83354961D01*
X187750205Y-83370730D01*
X187719077Y-83408659D01*
X187705897Y-83423200D01*
X187671200Y-83457897D01*
X187656659Y-83471077D01*
X187618730Y-83502205D01*
X187602961Y-83513900D01*
X187562162Y-83541160D01*
X187545334Y-83551246D01*
X187502061Y-83574377D01*
X187484313Y-83582772D01*
X187438980Y-83601549D01*
X187420503Y-83608160D01*
X187373548Y-83622404D01*
X187354505Y-83627174D01*
X187306380Y-83636746D01*
X187286971Y-83639625D01*
X187238140Y-83644435D01*
X187218534Y-83645398D01*
X187200112Y-83645398D01*
X187194000Y-83646000D01*
X186694000Y-83646000D01*
X186687888Y-83645398D01*
X186669466Y-83645398D01*
X186649860Y-83644435D01*
X186601029Y-83639625D01*
X186581620Y-83636746D01*
X186533495Y-83627174D01*
X186514452Y-83622404D01*
X186467497Y-83608160D01*
X186449020Y-83601549D01*
X186403687Y-83582772D01*
X186385939Y-83574377D01*
X186342666Y-83551246D01*
X186325838Y-83541160D01*
X186285039Y-83513900D01*
X186269270Y-83502205D01*
X186231341Y-83471077D01*
X186216800Y-83457897D01*
X186182103Y-83423200D01*
X186168923Y-83408659D01*
X186137795Y-83370730D01*
X186126100Y-83354961D01*
X186098840Y-83314162D01*
X186088754Y-83297334D01*
X186065623Y-83254061D01*
X186057228Y-83236313D01*
X186038451Y-83190980D01*
X186031840Y-83172503D01*
X186017596Y-83125548D01*
X186012826Y-83106505D01*
X186003254Y-83058380D01*
X186000375Y-83038971D01*
X185995565Y-82990140D01*
X185994602Y-82970534D01*
X185994602Y-82952112D01*
X185994000Y-82946000D01*
X185994000Y-82446000D01*
X185997843Y-82406982D01*
X185997843Y-82406982D01*
G37*
D11*
X186944000Y-81646000D03*
D12*
G36*
X185994602Y-81639888D02*
X185994602Y-81621466D01*
X185995565Y-81601860D01*
X186000375Y-81553029D01*
X186003254Y-81533620D01*
X186012826Y-81485495D01*
X186017596Y-81466452D01*
X186031840Y-81419497D01*
X186038451Y-81401020D01*
X186057228Y-81355687D01*
X186065623Y-81337939D01*
X186088754Y-81294666D01*
X186098840Y-81277838D01*
X186126100Y-81237039D01*
X186137795Y-81221270D01*
X186168923Y-81183341D01*
X186182103Y-81168800D01*
X186216800Y-81134103D01*
X186231341Y-81120923D01*
X186269270Y-81089795D01*
X186285039Y-81078100D01*
X186325838Y-81050840D01*
X186342666Y-81040754D01*
X186385939Y-81017623D01*
X186403687Y-81009228D01*
X186449020Y-80990451D01*
X186467497Y-80983840D01*
X186514452Y-80969596D01*
X186533495Y-80964826D01*
X186581620Y-80955254D01*
X186601029Y-80952375D01*
X186649860Y-80947565D01*
X186669466Y-80946602D01*
X186687888Y-80946602D01*
X186694000Y-80946000D01*
X187194000Y-80946000D01*
X187200112Y-80946602D01*
X187218534Y-80946602D01*
X187238140Y-80947565D01*
X187286971Y-80952375D01*
X187306380Y-80955254D01*
X187354505Y-80964826D01*
X187373548Y-80969596D01*
X187420503Y-80983840D01*
X187438980Y-80990451D01*
X187484313Y-81009228D01*
X187502061Y-81017623D01*
X187545334Y-81040754D01*
X187562162Y-81050840D01*
X187602961Y-81078100D01*
X187618730Y-81089795D01*
X187656659Y-81120923D01*
X187671200Y-81134103D01*
X187705897Y-81168800D01*
X187719077Y-81183341D01*
X187750205Y-81221270D01*
X187761900Y-81237039D01*
X187789160Y-81277838D01*
X187799246Y-81294666D01*
X187822377Y-81337939D01*
X187830772Y-81355687D01*
X187849549Y-81401020D01*
X187856160Y-81419497D01*
X187870404Y-81466452D01*
X187875174Y-81485495D01*
X187884746Y-81533620D01*
X187887625Y-81553029D01*
X187892435Y-81601860D01*
X187893398Y-81621466D01*
X187893398Y-81639888D01*
X187894000Y-81646000D01*
X187894000Y-82146000D01*
X187890157Y-82185018D01*
X187878776Y-82222537D01*
X187860294Y-82257114D01*
X187835421Y-82287421D01*
X187805114Y-82312294D01*
X187770537Y-82330776D01*
X187733018Y-82342157D01*
X187694000Y-82346000D01*
X186194000Y-82346000D01*
X186154982Y-82342157D01*
X186117463Y-82330776D01*
X186082886Y-82312294D01*
X186052579Y-82287421D01*
X186027706Y-82257114D01*
X186009224Y-82222537D01*
X185997843Y-82185018D01*
X185994000Y-82146000D01*
X185994000Y-81646000D01*
X185994602Y-81639888D01*
X185994602Y-81639888D01*
G37*
G04 #@! TD*
D11*
G04 #@! TO.C,JP3*
X189738000Y-82946000D03*
D12*
G36*
X190687398Y-82952112D02*
X190687398Y-82970534D01*
X190686435Y-82990140D01*
X190681625Y-83038971D01*
X190678746Y-83058380D01*
X190669174Y-83106505D01*
X190664404Y-83125548D01*
X190650160Y-83172503D01*
X190643549Y-83190980D01*
X190624772Y-83236313D01*
X190616377Y-83254061D01*
X190593246Y-83297334D01*
X190583160Y-83314162D01*
X190555900Y-83354961D01*
X190544205Y-83370730D01*
X190513077Y-83408659D01*
X190499897Y-83423200D01*
X190465200Y-83457897D01*
X190450659Y-83471077D01*
X190412730Y-83502205D01*
X190396961Y-83513900D01*
X190356162Y-83541160D01*
X190339334Y-83551246D01*
X190296061Y-83574377D01*
X190278313Y-83582772D01*
X190232980Y-83601549D01*
X190214503Y-83608160D01*
X190167548Y-83622404D01*
X190148505Y-83627174D01*
X190100380Y-83636746D01*
X190080971Y-83639625D01*
X190032140Y-83644435D01*
X190012534Y-83645398D01*
X189994112Y-83645398D01*
X189988000Y-83646000D01*
X189488000Y-83646000D01*
X189481888Y-83645398D01*
X189463466Y-83645398D01*
X189443860Y-83644435D01*
X189395029Y-83639625D01*
X189375620Y-83636746D01*
X189327495Y-83627174D01*
X189308452Y-83622404D01*
X189261497Y-83608160D01*
X189243020Y-83601549D01*
X189197687Y-83582772D01*
X189179939Y-83574377D01*
X189136666Y-83551246D01*
X189119838Y-83541160D01*
X189079039Y-83513900D01*
X189063270Y-83502205D01*
X189025341Y-83471077D01*
X189010800Y-83457897D01*
X188976103Y-83423200D01*
X188962923Y-83408659D01*
X188931795Y-83370730D01*
X188920100Y-83354961D01*
X188892840Y-83314162D01*
X188882754Y-83297334D01*
X188859623Y-83254061D01*
X188851228Y-83236313D01*
X188832451Y-83190980D01*
X188825840Y-83172503D01*
X188811596Y-83125548D01*
X188806826Y-83106505D01*
X188797254Y-83058380D01*
X188794375Y-83038971D01*
X188789565Y-82990140D01*
X188788602Y-82970534D01*
X188788602Y-82952112D01*
X188788000Y-82946000D01*
X188788000Y-82446000D01*
X188791843Y-82406982D01*
X188803224Y-82369463D01*
X188821706Y-82334886D01*
X188846579Y-82304579D01*
X188876886Y-82279706D01*
X188911463Y-82261224D01*
X188948982Y-82249843D01*
X188988000Y-82246000D01*
X190488000Y-82246000D01*
X190527018Y-82249843D01*
X190564537Y-82261224D01*
X190599114Y-82279706D01*
X190629421Y-82304579D01*
X190654294Y-82334886D01*
X190672776Y-82369463D01*
X190684157Y-82406982D01*
X190688000Y-82446000D01*
X190688000Y-82946000D01*
X190687398Y-82952112D01*
X190687398Y-82952112D01*
G37*
D11*
X189738000Y-81646000D03*
D12*
G36*
X190684157Y-82185018D02*
X190672776Y-82222537D01*
X190654294Y-82257114D01*
X190629421Y-82287421D01*
X190599114Y-82312294D01*
X190564537Y-82330776D01*
X190527018Y-82342157D01*
X190488000Y-82346000D01*
X188988000Y-82346000D01*
X188948982Y-82342157D01*
X188911463Y-82330776D01*
X188876886Y-82312294D01*
X188846579Y-82287421D01*
X188821706Y-82257114D01*
X188803224Y-82222537D01*
X188791843Y-82185018D01*
X188788000Y-82146000D01*
X188788000Y-81646000D01*
X188788602Y-81639888D01*
X188788602Y-81621466D01*
X188789565Y-81601860D01*
X188794375Y-81553029D01*
X188797254Y-81533620D01*
X188806826Y-81485495D01*
X188811596Y-81466452D01*
X188825840Y-81419497D01*
X188832451Y-81401020D01*
X188851228Y-81355687D01*
X188859623Y-81337939D01*
X188882754Y-81294666D01*
X188892840Y-81277838D01*
X188920100Y-81237039D01*
X188931795Y-81221270D01*
X188962923Y-81183341D01*
X188976103Y-81168800D01*
X189010800Y-81134103D01*
X189025341Y-81120923D01*
X189063270Y-81089795D01*
X189079039Y-81078100D01*
X189119838Y-81050840D01*
X189136666Y-81040754D01*
X189179939Y-81017623D01*
X189197687Y-81009228D01*
X189243020Y-80990451D01*
X189261497Y-80983840D01*
X189308452Y-80969596D01*
X189327495Y-80964826D01*
X189375620Y-80955254D01*
X189395029Y-80952375D01*
X189443860Y-80947565D01*
X189463466Y-80946602D01*
X189481888Y-80946602D01*
X189488000Y-80946000D01*
X189988000Y-80946000D01*
X189994112Y-80946602D01*
X190012534Y-80946602D01*
X190032140Y-80947565D01*
X190080971Y-80952375D01*
X190100380Y-80955254D01*
X190148505Y-80964826D01*
X190167548Y-80969596D01*
X190214503Y-80983840D01*
X190232980Y-80990451D01*
X190278313Y-81009228D01*
X190296061Y-81017623D01*
X190339334Y-81040754D01*
X190356162Y-81050840D01*
X190396961Y-81078100D01*
X190412730Y-81089795D01*
X190450659Y-81120923D01*
X190465200Y-81134103D01*
X190499897Y-81168800D01*
X190513077Y-81183341D01*
X190544205Y-81221270D01*
X190555900Y-81237039D01*
X190583160Y-81277838D01*
X190593246Y-81294666D01*
X190616377Y-81337939D01*
X190624772Y-81355687D01*
X190643549Y-81401020D01*
X190650160Y-81419497D01*
X190664404Y-81466452D01*
X190669174Y-81485495D01*
X190678746Y-81533620D01*
X190681625Y-81553029D01*
X190686435Y-81601860D01*
X190687398Y-81621466D01*
X190687398Y-81639888D01*
X190688000Y-81646000D01*
X190688000Y-82146000D01*
X190684157Y-82185018D01*
X190684157Y-82185018D01*
G37*
G04 #@! TD*
D11*
G04 #@! TO.C,JP1*
X193040000Y-91074000D03*
D12*
G36*
X192093843Y-90534982D02*
X192105224Y-90497463D01*
X192123706Y-90462886D01*
X192148579Y-90432579D01*
X192178886Y-90407706D01*
X192213463Y-90389224D01*
X192250982Y-90377843D01*
X192290000Y-90374000D01*
X193790000Y-90374000D01*
X193829018Y-90377843D01*
X193866537Y-90389224D01*
X193901114Y-90407706D01*
X193931421Y-90432579D01*
X193956294Y-90462886D01*
X193974776Y-90497463D01*
X193986157Y-90534982D01*
X193990000Y-90574000D01*
X193990000Y-91074000D01*
X193989398Y-91080112D01*
X193989398Y-91098534D01*
X193988435Y-91118140D01*
X193983625Y-91166971D01*
X193980746Y-91186380D01*
X193971174Y-91234505D01*
X193966404Y-91253548D01*
X193952160Y-91300503D01*
X193945549Y-91318980D01*
X193926772Y-91364313D01*
X193918377Y-91382061D01*
X193895246Y-91425334D01*
X193885160Y-91442162D01*
X193857900Y-91482961D01*
X193846205Y-91498730D01*
X193815077Y-91536659D01*
X193801897Y-91551200D01*
X193767200Y-91585897D01*
X193752659Y-91599077D01*
X193714730Y-91630205D01*
X193698961Y-91641900D01*
X193658162Y-91669160D01*
X193641334Y-91679246D01*
X193598061Y-91702377D01*
X193580313Y-91710772D01*
X193534980Y-91729549D01*
X193516503Y-91736160D01*
X193469548Y-91750404D01*
X193450505Y-91755174D01*
X193402380Y-91764746D01*
X193382971Y-91767625D01*
X193334140Y-91772435D01*
X193314534Y-91773398D01*
X193296112Y-91773398D01*
X193290000Y-91774000D01*
X192790000Y-91774000D01*
X192783888Y-91773398D01*
X192765466Y-91773398D01*
X192745860Y-91772435D01*
X192697029Y-91767625D01*
X192677620Y-91764746D01*
X192629495Y-91755174D01*
X192610452Y-91750404D01*
X192563497Y-91736160D01*
X192545020Y-91729549D01*
X192499687Y-91710772D01*
X192481939Y-91702377D01*
X192438666Y-91679246D01*
X192421838Y-91669160D01*
X192381039Y-91641900D01*
X192365270Y-91630205D01*
X192327341Y-91599077D01*
X192312800Y-91585897D01*
X192278103Y-91551200D01*
X192264923Y-91536659D01*
X192233795Y-91498730D01*
X192222100Y-91482961D01*
X192194840Y-91442162D01*
X192184754Y-91425334D01*
X192161623Y-91382061D01*
X192153228Y-91364313D01*
X192134451Y-91318980D01*
X192127840Y-91300503D01*
X192113596Y-91253548D01*
X192108826Y-91234505D01*
X192099254Y-91186380D01*
X192096375Y-91166971D01*
X192091565Y-91118140D01*
X192090602Y-91098534D01*
X192090602Y-91080112D01*
X192090000Y-91074000D01*
X192090000Y-90574000D01*
X192093843Y-90534982D01*
X192093843Y-90534982D01*
G37*
D11*
X193040000Y-89774000D03*
D12*
G36*
X192090602Y-89767888D02*
X192090602Y-89749466D01*
X192091565Y-89729860D01*
X192096375Y-89681029D01*
X192099254Y-89661620D01*
X192108826Y-89613495D01*
X192113596Y-89594452D01*
X192127840Y-89547497D01*
X192134451Y-89529020D01*
X192153228Y-89483687D01*
X192161623Y-89465939D01*
X192184754Y-89422666D01*
X192194840Y-89405838D01*
X192222100Y-89365039D01*
X192233795Y-89349270D01*
X192264923Y-89311341D01*
X192278103Y-89296800D01*
X192312800Y-89262103D01*
X192327341Y-89248923D01*
X192365270Y-89217795D01*
X192381039Y-89206100D01*
X192421838Y-89178840D01*
X192438666Y-89168754D01*
X192481939Y-89145623D01*
X192499687Y-89137228D01*
X192545020Y-89118451D01*
X192563497Y-89111840D01*
X192610452Y-89097596D01*
X192629495Y-89092826D01*
X192677620Y-89083254D01*
X192697029Y-89080375D01*
X192745860Y-89075565D01*
X192765466Y-89074602D01*
X192783888Y-89074602D01*
X192790000Y-89074000D01*
X193290000Y-89074000D01*
X193296112Y-89074602D01*
X193314534Y-89074602D01*
X193334140Y-89075565D01*
X193382971Y-89080375D01*
X193402380Y-89083254D01*
X193450505Y-89092826D01*
X193469548Y-89097596D01*
X193516503Y-89111840D01*
X193534980Y-89118451D01*
X193580313Y-89137228D01*
X193598061Y-89145623D01*
X193641334Y-89168754D01*
X193658162Y-89178840D01*
X193698961Y-89206100D01*
X193714730Y-89217795D01*
X193752659Y-89248923D01*
X193767200Y-89262103D01*
X193801897Y-89296800D01*
X193815077Y-89311341D01*
X193846205Y-89349270D01*
X193857900Y-89365039D01*
X193885160Y-89405838D01*
X193895246Y-89422666D01*
X193918377Y-89465939D01*
X193926772Y-89483687D01*
X193945549Y-89529020D01*
X193952160Y-89547497D01*
X193966404Y-89594452D01*
X193971174Y-89613495D01*
X193980746Y-89661620D01*
X193983625Y-89681029D01*
X193988435Y-89729860D01*
X193989398Y-89749466D01*
X193989398Y-89767888D01*
X193990000Y-89774000D01*
X193990000Y-90274000D01*
X193986157Y-90313018D01*
X193974776Y-90350537D01*
X193956294Y-90385114D01*
X193931421Y-90415421D01*
X193901114Y-90440294D01*
X193866537Y-90458776D01*
X193829018Y-90470157D01*
X193790000Y-90474000D01*
X192290000Y-90474000D01*
X192250982Y-90470157D01*
X192213463Y-90458776D01*
X192178886Y-90440294D01*
X192148579Y-90415421D01*
X192123706Y-90385114D01*
X192105224Y-90350537D01*
X192093843Y-90313018D01*
X192090000Y-90274000D01*
X192090000Y-89774000D01*
X192090602Y-89767888D01*
X192090602Y-89767888D01*
G37*
G04 #@! TD*
D13*
G04 #@! TO.C,U1*
X196342000Y-82796000D03*
X196842000Y-82796000D03*
X196842000Y-81796000D03*
X196342000Y-81796000D03*
X196342000Y-82296000D03*
X196842000Y-82296000D03*
G04 #@! TD*
D14*
G04 #@! TO.C,J4*
X201930000Y-81280000D03*
D15*
X201930000Y-83820000D03*
X201930000Y-86360000D03*
X201930000Y-88900000D03*
X201930000Y-91440000D03*
G04 #@! TD*
D14*
G04 #@! TO.C,J1*
X182880000Y-81280000D03*
D15*
X182880000Y-83820000D03*
X182880000Y-86360000D03*
X182880000Y-88900000D03*
X182880000Y-91440000D03*
G04 #@! TD*
D12*
G04 #@! TO.C,C1*
G36*
X194391943Y-80672655D02*
X194425312Y-80677605D01*
X194458035Y-80685802D01*
X194489797Y-80697166D01*
X194520293Y-80711590D01*
X194549227Y-80728932D01*
X194576323Y-80749028D01*
X194601318Y-80771682D01*
X194623972Y-80796677D01*
X194644068Y-80823773D01*
X194661410Y-80852707D01*
X194675834Y-80883203D01*
X194687198Y-80914965D01*
X194695395Y-80947688D01*
X194700345Y-80981057D01*
X194702000Y-81014750D01*
X194702000Y-81702250D01*
X194700345Y-81735943D01*
X194695395Y-81769312D01*
X194687198Y-81802035D01*
X194675834Y-81833797D01*
X194661410Y-81864293D01*
X194644068Y-81893227D01*
X194623972Y-81920323D01*
X194601318Y-81945318D01*
X194576323Y-81967972D01*
X194549227Y-81988068D01*
X194520293Y-82005410D01*
X194489797Y-82019834D01*
X194458035Y-82031198D01*
X194425312Y-82039395D01*
X194391943Y-82044345D01*
X194358250Y-82046000D01*
X193245750Y-82046000D01*
X193212057Y-82044345D01*
X193178688Y-82039395D01*
X193145965Y-82031198D01*
X193114203Y-82019834D01*
X193083707Y-82005410D01*
X193054773Y-81988068D01*
X193027677Y-81967972D01*
X193002682Y-81945318D01*
X192980028Y-81920323D01*
X192959932Y-81893227D01*
X192942590Y-81864293D01*
X192928166Y-81833797D01*
X192916802Y-81802035D01*
X192908605Y-81769312D01*
X192903655Y-81735943D01*
X192902000Y-81702250D01*
X192902000Y-81014750D01*
X192903655Y-80981057D01*
X192908605Y-80947688D01*
X192916802Y-80914965D01*
X192928166Y-80883203D01*
X192942590Y-80852707D01*
X192959932Y-80823773D01*
X192980028Y-80796677D01*
X193002682Y-80771682D01*
X193027677Y-80749028D01*
X193054773Y-80728932D01*
X193083707Y-80711590D01*
X193114203Y-80697166D01*
X193145965Y-80685802D01*
X193178688Y-80677605D01*
X193212057Y-80672655D01*
X193245750Y-80671000D01*
X194358250Y-80671000D01*
X194391943Y-80672655D01*
X194391943Y-80672655D01*
G37*
D16*
X193802000Y-81358500D03*
D12*
G36*
X194391943Y-82547655D02*
X194425312Y-82552605D01*
X194458035Y-82560802D01*
X194489797Y-82572166D01*
X194520293Y-82586590D01*
X194549227Y-82603932D01*
X194576323Y-82624028D01*
X194601318Y-82646682D01*
X194623972Y-82671677D01*
X194644068Y-82698773D01*
X194661410Y-82727707D01*
X194675834Y-82758203D01*
X194687198Y-82789965D01*
X194695395Y-82822688D01*
X194700345Y-82856057D01*
X194702000Y-82889750D01*
X194702000Y-83577250D01*
X194700345Y-83610943D01*
X194695395Y-83644312D01*
X194687198Y-83677035D01*
X194675834Y-83708797D01*
X194661410Y-83739293D01*
X194644068Y-83768227D01*
X194623972Y-83795323D01*
X194601318Y-83820318D01*
X194576323Y-83842972D01*
X194549227Y-83863068D01*
X194520293Y-83880410D01*
X194489797Y-83894834D01*
X194458035Y-83906198D01*
X194425312Y-83914395D01*
X194391943Y-83919345D01*
X194358250Y-83921000D01*
X193245750Y-83921000D01*
X193212057Y-83919345D01*
X193178688Y-83914395D01*
X193145965Y-83906198D01*
X193114203Y-83894834D01*
X193083707Y-83880410D01*
X193054773Y-83863068D01*
X193027677Y-83842972D01*
X193002682Y-83820318D01*
X192980028Y-83795323D01*
X192959932Y-83768227D01*
X192942590Y-83739293D01*
X192928166Y-83708797D01*
X192916802Y-83677035D01*
X192908605Y-83644312D01*
X192903655Y-83610943D01*
X192902000Y-83577250D01*
X192902000Y-82889750D01*
X192903655Y-82856057D01*
X192908605Y-82822688D01*
X192916802Y-82789965D01*
X192928166Y-82758203D01*
X192942590Y-82727707D01*
X192959932Y-82698773D01*
X192980028Y-82671677D01*
X193002682Y-82646682D01*
X193027677Y-82624028D01*
X193054773Y-82603932D01*
X193083707Y-82586590D01*
X193114203Y-82572166D01*
X193145965Y-82560802D01*
X193178688Y-82552605D01*
X193212057Y-82547655D01*
X193245750Y-82546000D01*
X194358250Y-82546000D01*
X194391943Y-82547655D01*
X194391943Y-82547655D01*
G37*
D16*
X193802000Y-83233500D03*
G04 #@! TD*
D12*
G04 #@! TO.C,R2*
G36*
X189819943Y-88546655D02*
X189853312Y-88551605D01*
X189886035Y-88559802D01*
X189917797Y-88571166D01*
X189948293Y-88585590D01*
X189977227Y-88602932D01*
X190004323Y-88623028D01*
X190029318Y-88645682D01*
X190051972Y-88670677D01*
X190072068Y-88697773D01*
X190089410Y-88726707D01*
X190103834Y-88757203D01*
X190115198Y-88788965D01*
X190123395Y-88821688D01*
X190128345Y-88855057D01*
X190130000Y-88888750D01*
X190130000Y-89576250D01*
X190128345Y-89609943D01*
X190123395Y-89643312D01*
X190115198Y-89676035D01*
X190103834Y-89707797D01*
X190089410Y-89738293D01*
X190072068Y-89767227D01*
X190051972Y-89794323D01*
X190029318Y-89819318D01*
X190004323Y-89841972D01*
X189977227Y-89862068D01*
X189948293Y-89879410D01*
X189917797Y-89893834D01*
X189886035Y-89905198D01*
X189853312Y-89913395D01*
X189819943Y-89918345D01*
X189786250Y-89920000D01*
X188673750Y-89920000D01*
X188640057Y-89918345D01*
X188606688Y-89913395D01*
X188573965Y-89905198D01*
X188542203Y-89893834D01*
X188511707Y-89879410D01*
X188482773Y-89862068D01*
X188455677Y-89841972D01*
X188430682Y-89819318D01*
X188408028Y-89794323D01*
X188387932Y-89767227D01*
X188370590Y-89738293D01*
X188356166Y-89707797D01*
X188344802Y-89676035D01*
X188336605Y-89643312D01*
X188331655Y-89609943D01*
X188330000Y-89576250D01*
X188330000Y-88888750D01*
X188331655Y-88855057D01*
X188336605Y-88821688D01*
X188344802Y-88788965D01*
X188356166Y-88757203D01*
X188370590Y-88726707D01*
X188387932Y-88697773D01*
X188408028Y-88670677D01*
X188430682Y-88645682D01*
X188455677Y-88623028D01*
X188482773Y-88602932D01*
X188511707Y-88585590D01*
X188542203Y-88571166D01*
X188573965Y-88559802D01*
X188606688Y-88551605D01*
X188640057Y-88546655D01*
X188673750Y-88545000D01*
X189786250Y-88545000D01*
X189819943Y-88546655D01*
X189819943Y-88546655D01*
G37*
D16*
X189230000Y-89232500D03*
D12*
G36*
X189819943Y-90421655D02*
X189853312Y-90426605D01*
X189886035Y-90434802D01*
X189917797Y-90446166D01*
X189948293Y-90460590D01*
X189977227Y-90477932D01*
X190004323Y-90498028D01*
X190029318Y-90520682D01*
X190051972Y-90545677D01*
X190072068Y-90572773D01*
X190089410Y-90601707D01*
X190103834Y-90632203D01*
X190115198Y-90663965D01*
X190123395Y-90696688D01*
X190128345Y-90730057D01*
X190130000Y-90763750D01*
X190130000Y-91451250D01*
X190128345Y-91484943D01*
X190123395Y-91518312D01*
X190115198Y-91551035D01*
X190103834Y-91582797D01*
X190089410Y-91613293D01*
X190072068Y-91642227D01*
X190051972Y-91669323D01*
X190029318Y-91694318D01*
X190004323Y-91716972D01*
X189977227Y-91737068D01*
X189948293Y-91754410D01*
X189917797Y-91768834D01*
X189886035Y-91780198D01*
X189853312Y-91788395D01*
X189819943Y-91793345D01*
X189786250Y-91795000D01*
X188673750Y-91795000D01*
X188640057Y-91793345D01*
X188606688Y-91788395D01*
X188573965Y-91780198D01*
X188542203Y-91768834D01*
X188511707Y-91754410D01*
X188482773Y-91737068D01*
X188455677Y-91716972D01*
X188430682Y-91694318D01*
X188408028Y-91669323D01*
X188387932Y-91642227D01*
X188370590Y-91613293D01*
X188356166Y-91582797D01*
X188344802Y-91551035D01*
X188336605Y-91518312D01*
X188331655Y-91484943D01*
X188330000Y-91451250D01*
X188330000Y-90763750D01*
X188331655Y-90730057D01*
X188336605Y-90696688D01*
X188344802Y-90663965D01*
X188356166Y-90632203D01*
X188370590Y-90601707D01*
X188387932Y-90572773D01*
X188408028Y-90545677D01*
X188430682Y-90520682D01*
X188455677Y-90498028D01*
X188482773Y-90477932D01*
X188511707Y-90460590D01*
X188542203Y-90446166D01*
X188573965Y-90434802D01*
X188606688Y-90426605D01*
X188640057Y-90421655D01*
X188673750Y-90420000D01*
X189786250Y-90420000D01*
X189819943Y-90421655D01*
X189819943Y-90421655D01*
G37*
D16*
X189230000Y-91107500D03*
G04 #@! TD*
D12*
G04 #@! TO.C,R1*
G36*
X187279943Y-90421655D02*
X187313312Y-90426605D01*
X187346035Y-90434802D01*
X187377797Y-90446166D01*
X187408293Y-90460590D01*
X187437227Y-90477932D01*
X187464323Y-90498028D01*
X187489318Y-90520682D01*
X187511972Y-90545677D01*
X187532068Y-90572773D01*
X187549410Y-90601707D01*
X187563834Y-90632203D01*
X187575198Y-90663965D01*
X187583395Y-90696688D01*
X187588345Y-90730057D01*
X187590000Y-90763750D01*
X187590000Y-91451250D01*
X187588345Y-91484943D01*
X187583395Y-91518312D01*
X187575198Y-91551035D01*
X187563834Y-91582797D01*
X187549410Y-91613293D01*
X187532068Y-91642227D01*
X187511972Y-91669323D01*
X187489318Y-91694318D01*
X187464323Y-91716972D01*
X187437227Y-91737068D01*
X187408293Y-91754410D01*
X187377797Y-91768834D01*
X187346035Y-91780198D01*
X187313312Y-91788395D01*
X187279943Y-91793345D01*
X187246250Y-91795000D01*
X186133750Y-91795000D01*
X186100057Y-91793345D01*
X186066688Y-91788395D01*
X186033965Y-91780198D01*
X186002203Y-91768834D01*
X185971707Y-91754410D01*
X185942773Y-91737068D01*
X185915677Y-91716972D01*
X185890682Y-91694318D01*
X185868028Y-91669323D01*
X185847932Y-91642227D01*
X185830590Y-91613293D01*
X185816166Y-91582797D01*
X185804802Y-91551035D01*
X185796605Y-91518312D01*
X185791655Y-91484943D01*
X185790000Y-91451250D01*
X185790000Y-90763750D01*
X185791655Y-90730057D01*
X185796605Y-90696688D01*
X185804802Y-90663965D01*
X185816166Y-90632203D01*
X185830590Y-90601707D01*
X185847932Y-90572773D01*
X185868028Y-90545677D01*
X185890682Y-90520682D01*
X185915677Y-90498028D01*
X185942773Y-90477932D01*
X185971707Y-90460590D01*
X186002203Y-90446166D01*
X186033965Y-90434802D01*
X186066688Y-90426605D01*
X186100057Y-90421655D01*
X186133750Y-90420000D01*
X187246250Y-90420000D01*
X187279943Y-90421655D01*
X187279943Y-90421655D01*
G37*
D16*
X186690000Y-91107500D03*
D12*
G36*
X187279943Y-88546655D02*
X187313312Y-88551605D01*
X187346035Y-88559802D01*
X187377797Y-88571166D01*
X187408293Y-88585590D01*
X187437227Y-88602932D01*
X187464323Y-88623028D01*
X187489318Y-88645682D01*
X187511972Y-88670677D01*
X187532068Y-88697773D01*
X187549410Y-88726707D01*
X187563834Y-88757203D01*
X187575198Y-88788965D01*
X187583395Y-88821688D01*
X187588345Y-88855057D01*
X187590000Y-88888750D01*
X187590000Y-89576250D01*
X187588345Y-89609943D01*
X187583395Y-89643312D01*
X187575198Y-89676035D01*
X187563834Y-89707797D01*
X187549410Y-89738293D01*
X187532068Y-89767227D01*
X187511972Y-89794323D01*
X187489318Y-89819318D01*
X187464323Y-89841972D01*
X187437227Y-89862068D01*
X187408293Y-89879410D01*
X187377797Y-89893834D01*
X187346035Y-89905198D01*
X187313312Y-89913395D01*
X187279943Y-89918345D01*
X187246250Y-89920000D01*
X186133750Y-89920000D01*
X186100057Y-89918345D01*
X186066688Y-89913395D01*
X186033965Y-89905198D01*
X186002203Y-89893834D01*
X185971707Y-89879410D01*
X185942773Y-89862068D01*
X185915677Y-89841972D01*
X185890682Y-89819318D01*
X185868028Y-89794323D01*
X185847932Y-89767227D01*
X185830590Y-89738293D01*
X185816166Y-89707797D01*
X185804802Y-89676035D01*
X185796605Y-89643312D01*
X185791655Y-89609943D01*
X185790000Y-89576250D01*
X185790000Y-88888750D01*
X185791655Y-88855057D01*
X185796605Y-88821688D01*
X185804802Y-88788965D01*
X185816166Y-88757203D01*
X185830590Y-88726707D01*
X185847932Y-88697773D01*
X185868028Y-88670677D01*
X185890682Y-88645682D01*
X185915677Y-88623028D01*
X185942773Y-88602932D01*
X185971707Y-88585590D01*
X186002203Y-88571166D01*
X186033965Y-88559802D01*
X186066688Y-88551605D01*
X186100057Y-88546655D01*
X186133750Y-88545000D01*
X187246250Y-88545000D01*
X187279943Y-88546655D01*
X187279943Y-88546655D01*
G37*
D16*
X186690000Y-89232500D03*
G04 #@! TD*
M02*
