G04 #@! TF.GenerationSoftware,KiCad,Pcbnew,5.0.0*
G04 #@! TF.CreationDate,2018-11-11T14:48:16-05:00*
G04 #@! TF.ProjectId,Pi-Temp_Humidity,50692D54656D705F48756D6964697479,rev?*
G04 #@! TF.SameCoordinates,Original*
G04 #@! TF.FileFunction,Copper,L1,Top,Signal*
G04 #@! TF.FilePolarity,Positive*
%FSLAX46Y46*%
G04 Gerber Fmt 4.6, Leading zero omitted, Abs format (unit mm)*
G04 Created by KiCad (PCBNEW 5.0.0) date Sun Nov 11 14:48:16 2018*
%MOMM*%
%LPD*%
G01*
G04 APERTURE LIST*
G04 #@! TA.AperFunction,BGAPad,CuDef*
%ADD10C,0.750000*%
G04 #@! TD*
G04 #@! TA.AperFunction,SMDPad,CuDef*
%ADD11C,0.500000*%
G04 #@! TD*
G04 #@! TA.AperFunction,Conductor*
%ADD12C,0.100000*%
G04 #@! TD*
G04 #@! TA.AperFunction,BGAPad,CuDef*
%ADD13C,0.265000*%
G04 #@! TD*
G04 #@! TA.AperFunction,ComponentPad*
%ADD14R,1.700000X1.700000*%
G04 #@! TD*
G04 #@! TA.AperFunction,ComponentPad*
%ADD15O,1.700000X1.700000*%
G04 #@! TD*
G04 #@! TA.AperFunction,SMDPad,CuDef*
%ADD16C,0.975000*%
G04 #@! TD*
G04 #@! TA.AperFunction,ViaPad*
%ADD17C,0.800000*%
G04 #@! TD*
G04 #@! TA.AperFunction,Conductor*
%ADD18C,0.250000*%
G04 #@! TD*
G04 #@! TA.AperFunction,Conductor*
%ADD19C,0.254000*%
G04 #@! TD*
G04 APERTURE END LIST*
D10*
G04 #@! TO.P,REF\002A\002A,~*
G04 #@! TO.N,N/C*
X204724000Y-91440000D03*
G04 #@! TD*
D11*
G04 #@! TO.P,JP2,1*
G04 #@! TO.N,GPIO*
X197104000Y-91074000D03*
D12*
G04 #@! TD*
G04 #@! TO.N,GPIO*
G04 #@! TO.C,JP2*
G36*
X196804000Y-90574000D02*
X196804000Y-90174000D01*
X197404000Y-90174000D01*
X197404000Y-90574000D01*
X197854000Y-90574000D01*
X197854000Y-91074000D01*
X197853398Y-91074000D01*
X197853398Y-91098534D01*
X197848588Y-91147365D01*
X197839016Y-91195490D01*
X197824772Y-91242445D01*
X197805995Y-91287778D01*
X197782864Y-91331051D01*
X197755604Y-91371850D01*
X197724476Y-91409779D01*
X197689779Y-91444476D01*
X197651850Y-91475604D01*
X197611051Y-91502864D01*
X197567778Y-91525995D01*
X197522445Y-91544772D01*
X197475490Y-91559016D01*
X197427365Y-91568588D01*
X197378534Y-91573398D01*
X197354000Y-91573398D01*
X197354000Y-91574000D01*
X196854000Y-91574000D01*
X196854000Y-91573398D01*
X196829466Y-91573398D01*
X196780635Y-91568588D01*
X196732510Y-91559016D01*
X196685555Y-91544772D01*
X196640222Y-91525995D01*
X196596949Y-91502864D01*
X196556150Y-91475604D01*
X196518221Y-91444476D01*
X196483524Y-91409779D01*
X196452396Y-91371850D01*
X196425136Y-91331051D01*
X196402005Y-91287778D01*
X196383228Y-91242445D01*
X196368984Y-91195490D01*
X196359412Y-91147365D01*
X196354602Y-91098534D01*
X196354602Y-91074000D01*
X196354000Y-91074000D01*
X196354000Y-90574000D01*
X196804000Y-90574000D01*
X196804000Y-90574000D01*
G37*
D11*
G04 #@! TO.P,JP2,2*
G04 #@! TO.N,GPIO_PASSTHRU*
X197104000Y-89774000D03*
D12*
G04 #@! TD*
G04 #@! TO.N,GPIO_PASSTHRU*
G04 #@! TO.C,JP2*
G36*
X196354602Y-89774000D02*
X196354602Y-89749466D01*
X196359412Y-89700635D01*
X196368984Y-89652510D01*
X196383228Y-89605555D01*
X196402005Y-89560222D01*
X196425136Y-89516949D01*
X196452396Y-89476150D01*
X196483524Y-89438221D01*
X196518221Y-89403524D01*
X196556150Y-89372396D01*
X196596949Y-89345136D01*
X196640222Y-89322005D01*
X196685555Y-89303228D01*
X196732510Y-89288984D01*
X196780635Y-89279412D01*
X196829466Y-89274602D01*
X196854000Y-89274602D01*
X196854000Y-89274000D01*
X197354000Y-89274000D01*
X197354000Y-89274602D01*
X197378534Y-89274602D01*
X197427365Y-89279412D01*
X197475490Y-89288984D01*
X197522445Y-89303228D01*
X197567778Y-89322005D01*
X197611051Y-89345136D01*
X197651850Y-89372396D01*
X197689779Y-89403524D01*
X197724476Y-89438221D01*
X197755604Y-89476150D01*
X197782864Y-89516949D01*
X197805995Y-89560222D01*
X197824772Y-89605555D01*
X197839016Y-89652510D01*
X197848588Y-89700635D01*
X197853398Y-89749466D01*
X197853398Y-89774000D01*
X197854000Y-89774000D01*
X197854000Y-90274000D01*
X196354000Y-90274000D01*
X196354000Y-89774000D01*
X196354602Y-89774000D01*
X196354602Y-89774000D01*
G37*
D11*
G04 #@! TO.P,JP4,1*
G04 #@! TO.N,Net-(JP3-Pad2)*
X186944000Y-82946000D03*
D12*
G04 #@! TD*
G04 #@! TO.N,Net-(JP3-Pad2)*
G04 #@! TO.C,JP4*
G36*
X187694000Y-82446000D02*
X187694000Y-82946000D01*
X187693398Y-82946000D01*
X187693398Y-82970534D01*
X187688588Y-83019365D01*
X187679016Y-83067490D01*
X187664772Y-83114445D01*
X187645995Y-83159778D01*
X187622864Y-83203051D01*
X187595604Y-83243850D01*
X187564476Y-83281779D01*
X187529779Y-83316476D01*
X187491850Y-83347604D01*
X187451051Y-83374864D01*
X187407778Y-83397995D01*
X187362445Y-83416772D01*
X187315490Y-83431016D01*
X187267365Y-83440588D01*
X187218534Y-83445398D01*
X187194000Y-83445398D01*
X187194000Y-83446000D01*
X186694000Y-83446000D01*
X186694000Y-83445398D01*
X186669466Y-83445398D01*
X186620635Y-83440588D01*
X186572510Y-83431016D01*
X186525555Y-83416772D01*
X186480222Y-83397995D01*
X186436949Y-83374864D01*
X186396150Y-83347604D01*
X186358221Y-83316476D01*
X186323524Y-83281779D01*
X186292396Y-83243850D01*
X186265136Y-83203051D01*
X186242005Y-83159778D01*
X186223228Y-83114445D01*
X186208984Y-83067490D01*
X186199412Y-83019365D01*
X186194602Y-82970534D01*
X186194602Y-82946000D01*
X186194000Y-82946000D01*
X186194000Y-82446000D01*
X187694000Y-82446000D01*
X187694000Y-82446000D01*
G37*
D11*
G04 #@! TO.P,JP4,2*
G04 #@! TO.N,Earth*
X186944000Y-81646000D03*
D12*
G04 #@! TD*
G04 #@! TO.N,Earth*
G04 #@! TO.C,JP4*
G36*
X186194602Y-81646000D02*
X186194602Y-81621466D01*
X186199412Y-81572635D01*
X186208984Y-81524510D01*
X186223228Y-81477555D01*
X186242005Y-81432222D01*
X186265136Y-81388949D01*
X186292396Y-81348150D01*
X186323524Y-81310221D01*
X186358221Y-81275524D01*
X186396150Y-81244396D01*
X186436949Y-81217136D01*
X186480222Y-81194005D01*
X186525555Y-81175228D01*
X186572510Y-81160984D01*
X186620635Y-81151412D01*
X186669466Y-81146602D01*
X186694000Y-81146602D01*
X186694000Y-81146000D01*
X187194000Y-81146000D01*
X187194000Y-81146602D01*
X187218534Y-81146602D01*
X187267365Y-81151412D01*
X187315490Y-81160984D01*
X187362445Y-81175228D01*
X187407778Y-81194005D01*
X187451051Y-81217136D01*
X187491850Y-81244396D01*
X187529779Y-81275524D01*
X187564476Y-81310221D01*
X187595604Y-81348150D01*
X187622864Y-81388949D01*
X187645995Y-81432222D01*
X187664772Y-81477555D01*
X187679016Y-81524510D01*
X187688588Y-81572635D01*
X187693398Y-81621466D01*
X187693398Y-81646000D01*
X187694000Y-81646000D01*
X187694000Y-82146000D01*
X186194000Y-82146000D01*
X186194000Y-81646000D01*
X186194602Y-81646000D01*
X186194602Y-81646000D01*
G37*
D11*
G04 #@! TO.P,JP3,2*
G04 #@! TO.N,Net-(JP3-Pad2)*
X189738000Y-82946000D03*
D12*
G04 #@! TD*
G04 #@! TO.N,Net-(JP3-Pad2)*
G04 #@! TO.C,JP3*
G36*
X190487398Y-82946000D02*
X190487398Y-82970534D01*
X190482588Y-83019365D01*
X190473016Y-83067490D01*
X190458772Y-83114445D01*
X190439995Y-83159778D01*
X190416864Y-83203051D01*
X190389604Y-83243850D01*
X190358476Y-83281779D01*
X190323779Y-83316476D01*
X190285850Y-83347604D01*
X190245051Y-83374864D01*
X190201778Y-83397995D01*
X190156445Y-83416772D01*
X190109490Y-83431016D01*
X190061365Y-83440588D01*
X190012534Y-83445398D01*
X189988000Y-83445398D01*
X189988000Y-83446000D01*
X189488000Y-83446000D01*
X189488000Y-83445398D01*
X189463466Y-83445398D01*
X189414635Y-83440588D01*
X189366510Y-83431016D01*
X189319555Y-83416772D01*
X189274222Y-83397995D01*
X189230949Y-83374864D01*
X189190150Y-83347604D01*
X189152221Y-83316476D01*
X189117524Y-83281779D01*
X189086396Y-83243850D01*
X189059136Y-83203051D01*
X189036005Y-83159778D01*
X189017228Y-83114445D01*
X189002984Y-83067490D01*
X188993412Y-83019365D01*
X188988602Y-82970534D01*
X188988602Y-82946000D01*
X188988000Y-82946000D01*
X188988000Y-82446000D01*
X190488000Y-82446000D01*
X190488000Y-82946000D01*
X190487398Y-82946000D01*
X190487398Y-82946000D01*
G37*
D11*
G04 #@! TO.P,JP3,1*
G04 #@! TO.N,VDD*
X189738000Y-81646000D03*
D12*
G04 #@! TD*
G04 #@! TO.N,VDD*
G04 #@! TO.C,JP3*
G36*
X188988000Y-82146000D02*
X188988000Y-81646000D01*
X188988602Y-81646000D01*
X188988602Y-81621466D01*
X188993412Y-81572635D01*
X189002984Y-81524510D01*
X189017228Y-81477555D01*
X189036005Y-81432222D01*
X189059136Y-81388949D01*
X189086396Y-81348150D01*
X189117524Y-81310221D01*
X189152221Y-81275524D01*
X189190150Y-81244396D01*
X189230949Y-81217136D01*
X189274222Y-81194005D01*
X189319555Y-81175228D01*
X189366510Y-81160984D01*
X189414635Y-81151412D01*
X189463466Y-81146602D01*
X189488000Y-81146602D01*
X189488000Y-81146000D01*
X189988000Y-81146000D01*
X189988000Y-81146602D01*
X190012534Y-81146602D01*
X190061365Y-81151412D01*
X190109490Y-81160984D01*
X190156445Y-81175228D01*
X190201778Y-81194005D01*
X190245051Y-81217136D01*
X190285850Y-81244396D01*
X190323779Y-81275524D01*
X190358476Y-81310221D01*
X190389604Y-81348150D01*
X190416864Y-81388949D01*
X190439995Y-81432222D01*
X190458772Y-81477555D01*
X190473016Y-81524510D01*
X190482588Y-81572635D01*
X190487398Y-81621466D01*
X190487398Y-81646000D01*
X190488000Y-81646000D01*
X190488000Y-82146000D01*
X188988000Y-82146000D01*
X188988000Y-82146000D01*
G37*
D11*
G04 #@! TO.P,JP1,1*
G04 #@! TO.N,GPIO*
X193040000Y-91074000D03*
D12*
G04 #@! TD*
G04 #@! TO.N,GPIO*
G04 #@! TO.C,JP1*
G36*
X193790000Y-90574000D02*
X193790000Y-91074000D01*
X193789398Y-91074000D01*
X193789398Y-91098534D01*
X193784588Y-91147365D01*
X193775016Y-91195490D01*
X193760772Y-91242445D01*
X193741995Y-91287778D01*
X193718864Y-91331051D01*
X193691604Y-91371850D01*
X193660476Y-91409779D01*
X193625779Y-91444476D01*
X193587850Y-91475604D01*
X193547051Y-91502864D01*
X193503778Y-91525995D01*
X193458445Y-91544772D01*
X193411490Y-91559016D01*
X193363365Y-91568588D01*
X193314534Y-91573398D01*
X193290000Y-91573398D01*
X193290000Y-91574000D01*
X192790000Y-91574000D01*
X192790000Y-91573398D01*
X192765466Y-91573398D01*
X192716635Y-91568588D01*
X192668510Y-91559016D01*
X192621555Y-91544772D01*
X192576222Y-91525995D01*
X192532949Y-91502864D01*
X192492150Y-91475604D01*
X192454221Y-91444476D01*
X192419524Y-91409779D01*
X192388396Y-91371850D01*
X192361136Y-91331051D01*
X192338005Y-91287778D01*
X192319228Y-91242445D01*
X192304984Y-91195490D01*
X192295412Y-91147365D01*
X192290602Y-91098534D01*
X192290602Y-91074000D01*
X192290000Y-91074000D01*
X192290000Y-90574000D01*
X193790000Y-90574000D01*
X193790000Y-90574000D01*
G37*
D11*
G04 #@! TO.P,JP1,2*
G04 #@! TO.N,Net-(JP1-Pad2)*
X193040000Y-89774000D03*
D12*
G04 #@! TD*
G04 #@! TO.N,Net-(JP1-Pad2)*
G04 #@! TO.C,JP1*
G36*
X192290602Y-89774000D02*
X192290602Y-89749466D01*
X192295412Y-89700635D01*
X192304984Y-89652510D01*
X192319228Y-89605555D01*
X192338005Y-89560222D01*
X192361136Y-89516949D01*
X192388396Y-89476150D01*
X192419524Y-89438221D01*
X192454221Y-89403524D01*
X192492150Y-89372396D01*
X192532949Y-89345136D01*
X192576222Y-89322005D01*
X192621555Y-89303228D01*
X192668510Y-89288984D01*
X192716635Y-89279412D01*
X192765466Y-89274602D01*
X192790000Y-89274602D01*
X192790000Y-89274000D01*
X193290000Y-89274000D01*
X193290000Y-89274602D01*
X193314534Y-89274602D01*
X193363365Y-89279412D01*
X193411490Y-89288984D01*
X193458445Y-89303228D01*
X193503778Y-89322005D01*
X193547051Y-89345136D01*
X193587850Y-89372396D01*
X193625779Y-89403524D01*
X193660476Y-89438221D01*
X193691604Y-89476150D01*
X193718864Y-89516949D01*
X193741995Y-89560222D01*
X193760772Y-89605555D01*
X193775016Y-89652510D01*
X193784588Y-89700635D01*
X193789398Y-89749466D01*
X193789398Y-89774000D01*
X193790000Y-89774000D01*
X193790000Y-90274000D01*
X192290000Y-90274000D01*
X192290000Y-89774000D01*
X192290602Y-89774000D01*
X192290602Y-89774000D01*
G37*
D13*
G04 #@! TO.P,U1,C1*
G04 #@! TO.N,Earth*
X196342000Y-82796000D03*
G04 #@! TO.P,U1,C2*
G04 #@! TO.N,Net-(JP1-Pad2)*
X196842000Y-82796000D03*
G04 #@! TO.P,U1,A2*
G04 #@! TO.N,SDA*
X196842000Y-81796000D03*
G04 #@! TO.P,U1,A1*
G04 #@! TO.N,VDD*
X196342000Y-81796000D03*
G04 #@! TO.P,U1,B1*
G04 #@! TO.N,Net-(JP3-Pad2)*
X196342000Y-82296000D03*
G04 #@! TO.P,U1,B2*
G04 #@! TO.N,SCL*
X196842000Y-82296000D03*
G04 #@! TD*
D14*
G04 #@! TO.P,J4,1*
G04 #@! TO.N,Earth*
X201930000Y-81280000D03*
D15*
G04 #@! TO.P,J4,2*
G04 #@! TO.N,GPIO_PASSTHRU*
X201930000Y-83820000D03*
G04 #@! TO.P,J4,3*
G04 #@! TO.N,SCL*
X201930000Y-86360000D03*
G04 #@! TO.P,J4,4*
G04 #@! TO.N,SDA*
X201930000Y-88900000D03*
G04 #@! TO.P,J4,5*
G04 #@! TO.N,VDD*
X201930000Y-91440000D03*
G04 #@! TD*
D14*
G04 #@! TO.P,J1,1*
G04 #@! TO.N,Earth*
X182880000Y-81280000D03*
D15*
G04 #@! TO.P,J1,2*
G04 #@! TO.N,GPIO*
X182880000Y-83820000D03*
G04 #@! TO.P,J1,3*
G04 #@! TO.N,SCL*
X182880000Y-86360000D03*
G04 #@! TO.P,J1,4*
G04 #@! TO.N,SDA*
X182880000Y-88900000D03*
G04 #@! TO.P,J1,5*
G04 #@! TO.N,VDD*
X182880000Y-91440000D03*
G04 #@! TD*
D12*
G04 #@! TO.N,VDD*
G04 #@! TO.C,C1*
G36*
X194282142Y-80872174D02*
X194305803Y-80875684D01*
X194329007Y-80881496D01*
X194351529Y-80889554D01*
X194373153Y-80899782D01*
X194393670Y-80912079D01*
X194412883Y-80926329D01*
X194430607Y-80942393D01*
X194446671Y-80960117D01*
X194460921Y-80979330D01*
X194473218Y-80999847D01*
X194483446Y-81021471D01*
X194491504Y-81043993D01*
X194497316Y-81067197D01*
X194500826Y-81090858D01*
X194502000Y-81114750D01*
X194502000Y-81602250D01*
X194500826Y-81626142D01*
X194497316Y-81649803D01*
X194491504Y-81673007D01*
X194483446Y-81695529D01*
X194473218Y-81717153D01*
X194460921Y-81737670D01*
X194446671Y-81756883D01*
X194430607Y-81774607D01*
X194412883Y-81790671D01*
X194393670Y-81804921D01*
X194373153Y-81817218D01*
X194351529Y-81827446D01*
X194329007Y-81835504D01*
X194305803Y-81841316D01*
X194282142Y-81844826D01*
X194258250Y-81846000D01*
X193345750Y-81846000D01*
X193321858Y-81844826D01*
X193298197Y-81841316D01*
X193274993Y-81835504D01*
X193252471Y-81827446D01*
X193230847Y-81817218D01*
X193210330Y-81804921D01*
X193191117Y-81790671D01*
X193173393Y-81774607D01*
X193157329Y-81756883D01*
X193143079Y-81737670D01*
X193130782Y-81717153D01*
X193120554Y-81695529D01*
X193112496Y-81673007D01*
X193106684Y-81649803D01*
X193103174Y-81626142D01*
X193102000Y-81602250D01*
X193102000Y-81114750D01*
X193103174Y-81090858D01*
X193106684Y-81067197D01*
X193112496Y-81043993D01*
X193120554Y-81021471D01*
X193130782Y-80999847D01*
X193143079Y-80979330D01*
X193157329Y-80960117D01*
X193173393Y-80942393D01*
X193191117Y-80926329D01*
X193210330Y-80912079D01*
X193230847Y-80899782D01*
X193252471Y-80889554D01*
X193274993Y-80881496D01*
X193298197Y-80875684D01*
X193321858Y-80872174D01*
X193345750Y-80871000D01*
X194258250Y-80871000D01*
X194282142Y-80872174D01*
X194282142Y-80872174D01*
G37*
D16*
G04 #@! TD*
G04 #@! TO.P,C1,1*
G04 #@! TO.N,VDD*
X193802000Y-81358500D03*
D12*
G04 #@! TO.N,Earth*
G04 #@! TO.C,C1*
G36*
X194282142Y-82747174D02*
X194305803Y-82750684D01*
X194329007Y-82756496D01*
X194351529Y-82764554D01*
X194373153Y-82774782D01*
X194393670Y-82787079D01*
X194412883Y-82801329D01*
X194430607Y-82817393D01*
X194446671Y-82835117D01*
X194460921Y-82854330D01*
X194473218Y-82874847D01*
X194483446Y-82896471D01*
X194491504Y-82918993D01*
X194497316Y-82942197D01*
X194500826Y-82965858D01*
X194502000Y-82989750D01*
X194502000Y-83477250D01*
X194500826Y-83501142D01*
X194497316Y-83524803D01*
X194491504Y-83548007D01*
X194483446Y-83570529D01*
X194473218Y-83592153D01*
X194460921Y-83612670D01*
X194446671Y-83631883D01*
X194430607Y-83649607D01*
X194412883Y-83665671D01*
X194393670Y-83679921D01*
X194373153Y-83692218D01*
X194351529Y-83702446D01*
X194329007Y-83710504D01*
X194305803Y-83716316D01*
X194282142Y-83719826D01*
X194258250Y-83721000D01*
X193345750Y-83721000D01*
X193321858Y-83719826D01*
X193298197Y-83716316D01*
X193274993Y-83710504D01*
X193252471Y-83702446D01*
X193230847Y-83692218D01*
X193210330Y-83679921D01*
X193191117Y-83665671D01*
X193173393Y-83649607D01*
X193157329Y-83631883D01*
X193143079Y-83612670D01*
X193130782Y-83592153D01*
X193120554Y-83570529D01*
X193112496Y-83548007D01*
X193106684Y-83524803D01*
X193103174Y-83501142D01*
X193102000Y-83477250D01*
X193102000Y-82989750D01*
X193103174Y-82965858D01*
X193106684Y-82942197D01*
X193112496Y-82918993D01*
X193120554Y-82896471D01*
X193130782Y-82874847D01*
X193143079Y-82854330D01*
X193157329Y-82835117D01*
X193173393Y-82817393D01*
X193191117Y-82801329D01*
X193210330Y-82787079D01*
X193230847Y-82774782D01*
X193252471Y-82764554D01*
X193274993Y-82756496D01*
X193298197Y-82750684D01*
X193321858Y-82747174D01*
X193345750Y-82746000D01*
X194258250Y-82746000D01*
X194282142Y-82747174D01*
X194282142Y-82747174D01*
G37*
D16*
G04 #@! TD*
G04 #@! TO.P,C1,2*
G04 #@! TO.N,Earth*
X193802000Y-83233500D03*
D12*
G04 #@! TO.N,SCL*
G04 #@! TO.C,R2*
G36*
X189710142Y-88746174D02*
X189733803Y-88749684D01*
X189757007Y-88755496D01*
X189779529Y-88763554D01*
X189801153Y-88773782D01*
X189821670Y-88786079D01*
X189840883Y-88800329D01*
X189858607Y-88816393D01*
X189874671Y-88834117D01*
X189888921Y-88853330D01*
X189901218Y-88873847D01*
X189911446Y-88895471D01*
X189919504Y-88917993D01*
X189925316Y-88941197D01*
X189928826Y-88964858D01*
X189930000Y-88988750D01*
X189930000Y-89476250D01*
X189928826Y-89500142D01*
X189925316Y-89523803D01*
X189919504Y-89547007D01*
X189911446Y-89569529D01*
X189901218Y-89591153D01*
X189888921Y-89611670D01*
X189874671Y-89630883D01*
X189858607Y-89648607D01*
X189840883Y-89664671D01*
X189821670Y-89678921D01*
X189801153Y-89691218D01*
X189779529Y-89701446D01*
X189757007Y-89709504D01*
X189733803Y-89715316D01*
X189710142Y-89718826D01*
X189686250Y-89720000D01*
X188773750Y-89720000D01*
X188749858Y-89718826D01*
X188726197Y-89715316D01*
X188702993Y-89709504D01*
X188680471Y-89701446D01*
X188658847Y-89691218D01*
X188638330Y-89678921D01*
X188619117Y-89664671D01*
X188601393Y-89648607D01*
X188585329Y-89630883D01*
X188571079Y-89611670D01*
X188558782Y-89591153D01*
X188548554Y-89569529D01*
X188540496Y-89547007D01*
X188534684Y-89523803D01*
X188531174Y-89500142D01*
X188530000Y-89476250D01*
X188530000Y-88988750D01*
X188531174Y-88964858D01*
X188534684Y-88941197D01*
X188540496Y-88917993D01*
X188548554Y-88895471D01*
X188558782Y-88873847D01*
X188571079Y-88853330D01*
X188585329Y-88834117D01*
X188601393Y-88816393D01*
X188619117Y-88800329D01*
X188638330Y-88786079D01*
X188658847Y-88773782D01*
X188680471Y-88763554D01*
X188702993Y-88755496D01*
X188726197Y-88749684D01*
X188749858Y-88746174D01*
X188773750Y-88745000D01*
X189686250Y-88745000D01*
X189710142Y-88746174D01*
X189710142Y-88746174D01*
G37*
D16*
G04 #@! TD*
G04 #@! TO.P,R2,2*
G04 #@! TO.N,SCL*
X189230000Y-89232500D03*
D12*
G04 #@! TO.N,VDD*
G04 #@! TO.C,R2*
G36*
X189710142Y-90621174D02*
X189733803Y-90624684D01*
X189757007Y-90630496D01*
X189779529Y-90638554D01*
X189801153Y-90648782D01*
X189821670Y-90661079D01*
X189840883Y-90675329D01*
X189858607Y-90691393D01*
X189874671Y-90709117D01*
X189888921Y-90728330D01*
X189901218Y-90748847D01*
X189911446Y-90770471D01*
X189919504Y-90792993D01*
X189925316Y-90816197D01*
X189928826Y-90839858D01*
X189930000Y-90863750D01*
X189930000Y-91351250D01*
X189928826Y-91375142D01*
X189925316Y-91398803D01*
X189919504Y-91422007D01*
X189911446Y-91444529D01*
X189901218Y-91466153D01*
X189888921Y-91486670D01*
X189874671Y-91505883D01*
X189858607Y-91523607D01*
X189840883Y-91539671D01*
X189821670Y-91553921D01*
X189801153Y-91566218D01*
X189779529Y-91576446D01*
X189757007Y-91584504D01*
X189733803Y-91590316D01*
X189710142Y-91593826D01*
X189686250Y-91595000D01*
X188773750Y-91595000D01*
X188749858Y-91593826D01*
X188726197Y-91590316D01*
X188702993Y-91584504D01*
X188680471Y-91576446D01*
X188658847Y-91566218D01*
X188638330Y-91553921D01*
X188619117Y-91539671D01*
X188601393Y-91523607D01*
X188585329Y-91505883D01*
X188571079Y-91486670D01*
X188558782Y-91466153D01*
X188548554Y-91444529D01*
X188540496Y-91422007D01*
X188534684Y-91398803D01*
X188531174Y-91375142D01*
X188530000Y-91351250D01*
X188530000Y-90863750D01*
X188531174Y-90839858D01*
X188534684Y-90816197D01*
X188540496Y-90792993D01*
X188548554Y-90770471D01*
X188558782Y-90748847D01*
X188571079Y-90728330D01*
X188585329Y-90709117D01*
X188601393Y-90691393D01*
X188619117Y-90675329D01*
X188638330Y-90661079D01*
X188658847Y-90648782D01*
X188680471Y-90638554D01*
X188702993Y-90630496D01*
X188726197Y-90624684D01*
X188749858Y-90621174D01*
X188773750Y-90620000D01*
X189686250Y-90620000D01*
X189710142Y-90621174D01*
X189710142Y-90621174D01*
G37*
D16*
G04 #@! TD*
G04 #@! TO.P,R2,1*
G04 #@! TO.N,VDD*
X189230000Y-91107500D03*
D12*
G04 #@! TO.N,VDD*
G04 #@! TO.C,R1*
G36*
X187170142Y-90621174D02*
X187193803Y-90624684D01*
X187217007Y-90630496D01*
X187239529Y-90638554D01*
X187261153Y-90648782D01*
X187281670Y-90661079D01*
X187300883Y-90675329D01*
X187318607Y-90691393D01*
X187334671Y-90709117D01*
X187348921Y-90728330D01*
X187361218Y-90748847D01*
X187371446Y-90770471D01*
X187379504Y-90792993D01*
X187385316Y-90816197D01*
X187388826Y-90839858D01*
X187390000Y-90863750D01*
X187390000Y-91351250D01*
X187388826Y-91375142D01*
X187385316Y-91398803D01*
X187379504Y-91422007D01*
X187371446Y-91444529D01*
X187361218Y-91466153D01*
X187348921Y-91486670D01*
X187334671Y-91505883D01*
X187318607Y-91523607D01*
X187300883Y-91539671D01*
X187281670Y-91553921D01*
X187261153Y-91566218D01*
X187239529Y-91576446D01*
X187217007Y-91584504D01*
X187193803Y-91590316D01*
X187170142Y-91593826D01*
X187146250Y-91595000D01*
X186233750Y-91595000D01*
X186209858Y-91593826D01*
X186186197Y-91590316D01*
X186162993Y-91584504D01*
X186140471Y-91576446D01*
X186118847Y-91566218D01*
X186098330Y-91553921D01*
X186079117Y-91539671D01*
X186061393Y-91523607D01*
X186045329Y-91505883D01*
X186031079Y-91486670D01*
X186018782Y-91466153D01*
X186008554Y-91444529D01*
X186000496Y-91422007D01*
X185994684Y-91398803D01*
X185991174Y-91375142D01*
X185990000Y-91351250D01*
X185990000Y-90863750D01*
X185991174Y-90839858D01*
X185994684Y-90816197D01*
X186000496Y-90792993D01*
X186008554Y-90770471D01*
X186018782Y-90748847D01*
X186031079Y-90728330D01*
X186045329Y-90709117D01*
X186061393Y-90691393D01*
X186079117Y-90675329D01*
X186098330Y-90661079D01*
X186118847Y-90648782D01*
X186140471Y-90638554D01*
X186162993Y-90630496D01*
X186186197Y-90624684D01*
X186209858Y-90621174D01*
X186233750Y-90620000D01*
X187146250Y-90620000D01*
X187170142Y-90621174D01*
X187170142Y-90621174D01*
G37*
D16*
G04 #@! TD*
G04 #@! TO.P,R1,1*
G04 #@! TO.N,VDD*
X186690000Y-91107500D03*
D12*
G04 #@! TO.N,SDA*
G04 #@! TO.C,R1*
G36*
X187170142Y-88746174D02*
X187193803Y-88749684D01*
X187217007Y-88755496D01*
X187239529Y-88763554D01*
X187261153Y-88773782D01*
X187281670Y-88786079D01*
X187300883Y-88800329D01*
X187318607Y-88816393D01*
X187334671Y-88834117D01*
X187348921Y-88853330D01*
X187361218Y-88873847D01*
X187371446Y-88895471D01*
X187379504Y-88917993D01*
X187385316Y-88941197D01*
X187388826Y-88964858D01*
X187390000Y-88988750D01*
X187390000Y-89476250D01*
X187388826Y-89500142D01*
X187385316Y-89523803D01*
X187379504Y-89547007D01*
X187371446Y-89569529D01*
X187361218Y-89591153D01*
X187348921Y-89611670D01*
X187334671Y-89630883D01*
X187318607Y-89648607D01*
X187300883Y-89664671D01*
X187281670Y-89678921D01*
X187261153Y-89691218D01*
X187239529Y-89701446D01*
X187217007Y-89709504D01*
X187193803Y-89715316D01*
X187170142Y-89718826D01*
X187146250Y-89720000D01*
X186233750Y-89720000D01*
X186209858Y-89718826D01*
X186186197Y-89715316D01*
X186162993Y-89709504D01*
X186140471Y-89701446D01*
X186118847Y-89691218D01*
X186098330Y-89678921D01*
X186079117Y-89664671D01*
X186061393Y-89648607D01*
X186045329Y-89630883D01*
X186031079Y-89611670D01*
X186018782Y-89591153D01*
X186008554Y-89569529D01*
X186000496Y-89547007D01*
X185994684Y-89523803D01*
X185991174Y-89500142D01*
X185990000Y-89476250D01*
X185990000Y-88988750D01*
X185991174Y-88964858D01*
X185994684Y-88941197D01*
X186000496Y-88917993D01*
X186008554Y-88895471D01*
X186018782Y-88873847D01*
X186031079Y-88853330D01*
X186045329Y-88834117D01*
X186061393Y-88816393D01*
X186079117Y-88800329D01*
X186098330Y-88786079D01*
X186118847Y-88773782D01*
X186140471Y-88763554D01*
X186162993Y-88755496D01*
X186186197Y-88749684D01*
X186209858Y-88746174D01*
X186233750Y-88745000D01*
X187146250Y-88745000D01*
X187170142Y-88746174D01*
X187170142Y-88746174D01*
G37*
D16*
G04 #@! TD*
G04 #@! TO.P,R1,2*
G04 #@! TO.N,SDA*
X186690000Y-89232500D03*
D17*
G04 #@! TO.N,VDD*
X191770000Y-80518000D03*
X195326000Y-81534000D03*
X180340000Y-91440000D03*
X180340000Y-90170000D03*
G04 #@! TO.N,Earth*
X195072000Y-83058000D03*
X185166000Y-81534000D03*
G04 #@! TO.N,Net-(JP1-Pad2)*
X194652900Y-89852500D03*
X195072000Y-84150200D03*
G04 #@! TD*
D18*
G04 #@! TO.N,VDD*
X195588000Y-81796000D02*
X195326000Y-81534000D01*
X196342000Y-81796000D02*
X195588000Y-81796000D01*
X193977500Y-81534000D02*
X193802000Y-81358500D01*
X195326000Y-81534000D02*
X193977500Y-81534000D01*
X189880000Y-81788000D02*
X189738000Y-81646000D01*
X189230000Y-91107500D02*
X186690000Y-91107500D01*
X186357500Y-91440000D02*
X186690000Y-91107500D01*
X182880000Y-91440000D02*
X186357500Y-91440000D01*
X190866000Y-80518000D02*
X189738000Y-81646000D01*
X191770000Y-80518000D02*
X190866000Y-80518000D01*
X192961500Y-80518000D02*
X193802000Y-81358500D01*
X191770000Y-80518000D02*
X192961500Y-80518000D01*
G04 #@! TO.N,SDA*
X201555997Y-85184999D02*
X202850499Y-85184999D01*
X196842000Y-81796000D02*
X198166998Y-81796000D01*
X198166998Y-81796000D02*
X201555997Y-85184999D01*
X202779999Y-88050001D02*
X201930000Y-88900000D01*
X203105001Y-87724999D02*
X202779999Y-88050001D01*
X203105001Y-85439501D02*
X203105001Y-87724999D01*
X202850499Y-85184999D02*
X203105001Y-85439501D01*
X183212500Y-89232500D02*
X182880000Y-88900000D01*
X186690000Y-89232500D02*
X183212500Y-89232500D01*
X200727919Y-88900000D02*
X201930000Y-88900000D01*
X192500662Y-88900000D02*
X200727919Y-88900000D01*
X191355652Y-90045010D02*
X192500662Y-88900000D01*
X187502510Y-90045010D02*
X191355652Y-90045010D01*
X186690000Y-89232500D02*
X187502510Y-90045010D01*
G04 #@! TO.N,SCL*
X201930000Y-86360000D02*
X201561700Y-86360000D01*
X201930000Y-86360000D02*
X197866000Y-82296000D01*
X197866000Y-82296000D02*
X197408800Y-82296000D01*
X197408800Y-82296000D02*
X196842000Y-82296000D01*
X186357500Y-86360000D02*
X182880000Y-86360000D01*
X189230000Y-89232500D02*
X186357500Y-86360000D01*
X191302400Y-87160100D02*
X189230000Y-89232500D01*
X193301693Y-87160100D02*
X191302400Y-87160100D01*
X197408800Y-83052993D02*
X193301693Y-87160100D01*
X197408800Y-82296000D02*
X197408800Y-83052993D01*
G04 #@! TO.N,Earth*
X186832000Y-81534000D02*
X186944000Y-81646000D01*
X185166000Y-81534000D02*
X186832000Y-81534000D01*
X194896500Y-83233500D02*
X195072000Y-83058000D01*
X193802000Y-83233500D02*
X194896500Y-83233500D01*
X196080000Y-83058000D02*
X196342000Y-82796000D01*
X195072000Y-83058000D02*
X196080000Y-83058000D01*
G04 #@! TO.N,Net-(JP1-Pad2)*
X193118500Y-89852500D02*
X193040000Y-89774000D01*
X194652900Y-89852500D02*
X193118500Y-89852500D01*
X196842000Y-82983383D02*
X196842000Y-82796000D01*
X196075182Y-83750201D02*
X196842000Y-82983383D01*
X195471999Y-83750201D02*
X196075182Y-83750201D01*
X195072000Y-84150200D02*
X195471999Y-83750201D01*
G04 #@! TO.N,Net-(JP3-Pad2)*
X190147636Y-82946000D02*
X189738000Y-82946000D01*
X190797636Y-82296000D02*
X190147636Y-82946000D01*
X196342000Y-82296000D02*
X190797636Y-82296000D01*
X186944000Y-82946000D02*
X189738000Y-82946000D01*
G04 #@! TO.N,GPIO*
X196256408Y-91074000D02*
X193040000Y-91074000D01*
X197104000Y-91074000D02*
X196256408Y-91074000D01*
X182030001Y-84669999D02*
X182880000Y-83820000D01*
X181704999Y-84995001D02*
X182030001Y-84669999D01*
X181704999Y-92004001D02*
X181704999Y-84995001D01*
X182315999Y-92615001D02*
X181704999Y-92004001D01*
X190767850Y-91074000D02*
X189226849Y-92615001D01*
X189226849Y-92615001D02*
X182315999Y-92615001D01*
X193040000Y-91074000D02*
X190767850Y-91074000D01*
G04 #@! TO.N,GPIO_PASSTHRU*
X201064998Y-89774000D02*
X201486398Y-90195400D01*
X197104000Y-89774000D02*
X201064998Y-89774000D01*
X203555011Y-89013991D02*
X203555011Y-84242930D01*
X203132081Y-83820000D02*
X201930000Y-83820000D01*
X203555011Y-84242930D02*
X203132081Y-83820000D01*
X202373602Y-90195400D02*
X203555011Y-89013991D01*
X201486398Y-90195400D02*
X202373602Y-90195400D01*
G04 #@! TD*
D19*
G04 #@! TO.N,VDD*
G36*
X206300001Y-93270000D02*
X189613661Y-93270000D01*
X189651125Y-93249975D01*
X189766850Y-93155002D01*
X189790653Y-93125998D01*
X191082652Y-91834000D01*
X191945431Y-91834000D01*
X191952310Y-91842382D01*
X192021618Y-91911690D01*
X192118309Y-91991042D01*
X192199808Y-92045498D01*
X192310125Y-92104464D01*
X192400681Y-92141973D01*
X192520377Y-92178282D01*
X192616510Y-92197404D01*
X192740991Y-92209664D01*
X192765550Y-92209664D01*
X192790000Y-92212072D01*
X193290000Y-92212072D01*
X193314450Y-92209664D01*
X193339009Y-92209664D01*
X193463490Y-92197404D01*
X193559623Y-92178282D01*
X193679319Y-92141973D01*
X193769875Y-92104464D01*
X193880192Y-92045498D01*
X193961691Y-91991042D01*
X194058382Y-91911690D01*
X194127690Y-91842382D01*
X194134569Y-91834000D01*
X196009431Y-91834000D01*
X196016310Y-91842382D01*
X196085618Y-91911690D01*
X196182309Y-91991042D01*
X196263808Y-92045498D01*
X196374125Y-92104464D01*
X196464681Y-92141973D01*
X196584377Y-92178282D01*
X196680510Y-92197404D01*
X196804991Y-92209664D01*
X196829550Y-92209664D01*
X196854000Y-92212072D01*
X197354000Y-92212072D01*
X197378450Y-92209664D01*
X197403009Y-92209664D01*
X197527490Y-92197404D01*
X197623623Y-92178282D01*
X197743319Y-92141973D01*
X197833875Y-92104464D01*
X197944192Y-92045498D01*
X198025691Y-91991042D01*
X198122382Y-91911690D01*
X198191690Y-91842382D01*
X198229024Y-91796890D01*
X200488524Y-91796890D01*
X200533175Y-91944099D01*
X200658359Y-92206920D01*
X200832412Y-92440269D01*
X201048645Y-92635178D01*
X201298748Y-92784157D01*
X201573109Y-92881481D01*
X201803000Y-92760814D01*
X201803000Y-91567000D01*
X202057000Y-91567000D01*
X202057000Y-92760814D01*
X202286891Y-92881481D01*
X202561252Y-92784157D01*
X202811355Y-92635178D01*
X203027588Y-92440269D01*
X203201641Y-92206920D01*
X203326825Y-91944099D01*
X203371476Y-91796890D01*
X203250155Y-91567000D01*
X202057000Y-91567000D01*
X201803000Y-91567000D01*
X200609845Y-91567000D01*
X200488524Y-91796890D01*
X198229024Y-91796890D01*
X198271042Y-91745691D01*
X198325498Y-91664192D01*
X198384464Y-91553875D01*
X198421973Y-91463319D01*
X198458282Y-91343623D01*
X198458898Y-91340524D01*
X203714000Y-91340524D01*
X203714000Y-91539476D01*
X203752814Y-91734606D01*
X203828950Y-91918414D01*
X203939482Y-92083837D01*
X204080163Y-92224518D01*
X204245586Y-92335050D01*
X204429394Y-92411186D01*
X204624524Y-92450000D01*
X204823476Y-92450000D01*
X205018606Y-92411186D01*
X205202414Y-92335050D01*
X205367837Y-92224518D01*
X205508518Y-92083837D01*
X205619050Y-91918414D01*
X205695186Y-91734606D01*
X205734000Y-91539476D01*
X205734000Y-91340524D01*
X205695186Y-91145394D01*
X205619050Y-90961586D01*
X205508518Y-90796163D01*
X205367837Y-90655482D01*
X205202414Y-90544950D01*
X205018606Y-90468814D01*
X204823476Y-90430000D01*
X204624524Y-90430000D01*
X204429394Y-90468814D01*
X204245586Y-90544950D01*
X204080163Y-90655482D01*
X203939482Y-90796163D01*
X203828950Y-90961586D01*
X203752814Y-91145394D01*
X203714000Y-91340524D01*
X198458898Y-91340524D01*
X198477404Y-91247490D01*
X198489664Y-91123009D01*
X198489664Y-91098450D01*
X198492072Y-91074000D01*
X198492072Y-90574000D01*
X198488132Y-90534000D01*
X200750197Y-90534000D01*
X200757013Y-90540816D01*
X200658359Y-90673080D01*
X200533175Y-90935901D01*
X200488524Y-91083110D01*
X200609845Y-91313000D01*
X201803000Y-91313000D01*
X201803000Y-91293000D01*
X202057000Y-91293000D01*
X202057000Y-91313000D01*
X203250155Y-91313000D01*
X203371476Y-91083110D01*
X203326825Y-90935901D01*
X203201641Y-90673080D01*
X203102987Y-90540816D01*
X204066015Y-89577789D01*
X204095012Y-89553992D01*
X204189985Y-89438267D01*
X204260557Y-89306238D01*
X204304014Y-89162977D01*
X204315011Y-89051324D01*
X204315011Y-89051316D01*
X204318687Y-89013991D01*
X204315011Y-88976666D01*
X204315011Y-84280252D01*
X204318687Y-84242929D01*
X204315011Y-84205606D01*
X204315011Y-84205597D01*
X204304014Y-84093944D01*
X204260557Y-83950683D01*
X204189985Y-83818654D01*
X204095012Y-83702929D01*
X204066008Y-83679126D01*
X203695885Y-83309003D01*
X203672082Y-83279999D01*
X203556357Y-83185026D01*
X203424328Y-83114454D01*
X203281067Y-83070997D01*
X203209716Y-83063969D01*
X203170706Y-82990986D01*
X202985134Y-82764866D01*
X202955313Y-82740393D01*
X203024180Y-82719502D01*
X203134494Y-82660537D01*
X203231185Y-82581185D01*
X203310537Y-82484494D01*
X203369502Y-82374180D01*
X203405812Y-82254482D01*
X203418072Y-82130000D01*
X203418072Y-80430000D01*
X203405812Y-80305518D01*
X203369502Y-80185820D01*
X203310537Y-80075506D01*
X203231185Y-79978815D01*
X203134494Y-79899463D01*
X203024180Y-79840498D01*
X202904482Y-79804188D01*
X202780000Y-79791928D01*
X201080000Y-79791928D01*
X200955518Y-79804188D01*
X200835820Y-79840498D01*
X200725506Y-79899463D01*
X200628815Y-79978815D01*
X200549463Y-80075506D01*
X200490498Y-80185820D01*
X200454188Y-80305518D01*
X200441928Y-80430000D01*
X200441928Y-82130000D01*
X200454188Y-82254482D01*
X200490498Y-82374180D01*
X200549463Y-82484494D01*
X200628815Y-82581185D01*
X200725506Y-82660537D01*
X200835820Y-82719502D01*
X200904687Y-82740393D01*
X200874866Y-82764866D01*
X200689294Y-82990986D01*
X200601339Y-83155539D01*
X198730802Y-81285003D01*
X198706999Y-81255999D01*
X198591274Y-81161026D01*
X198459245Y-81090454D01*
X198315984Y-81046997D01*
X198204331Y-81036000D01*
X198204320Y-81036000D01*
X198166998Y-81032324D01*
X198129676Y-81036000D01*
X196955298Y-81036000D01*
X196917592Y-81028500D01*
X196766408Y-81028500D01*
X196618128Y-81057994D01*
X196593874Y-81068040D01*
X196456951Y-81033402D01*
X196305967Y-81025629D01*
X196156367Y-81047462D01*
X196013901Y-81098060D01*
X195943965Y-81135441D01*
X195958310Y-81318618D01*
X196135576Y-81495884D01*
X196118959Y-81536000D01*
X195988308Y-81536000D01*
X195864618Y-81412310D01*
X195681441Y-81397965D01*
X195616480Y-81534482D01*
X195616096Y-81536000D01*
X195028750Y-81536000D01*
X194978250Y-81485500D01*
X193929000Y-81485500D01*
X193929000Y-81505500D01*
X193675000Y-81505500D01*
X193675000Y-81485500D01*
X192625750Y-81485500D01*
X192575250Y-81536000D01*
X191117657Y-81536000D01*
X191111404Y-81472510D01*
X191092282Y-81376377D01*
X191055973Y-81256681D01*
X191018464Y-81166125D01*
X190959498Y-81055808D01*
X190905042Y-80974309D01*
X190825690Y-80877618D01*
X190756530Y-80808458D01*
X192467000Y-80808458D01*
X192467000Y-81072750D01*
X192625750Y-81231500D01*
X193675000Y-81231500D01*
X193675000Y-80394750D01*
X193929000Y-80394750D01*
X193929000Y-81231500D01*
X194978250Y-81231500D01*
X195137000Y-81072750D01*
X195137000Y-80808458D01*
X195112597Y-80685777D01*
X195064730Y-80570215D01*
X194995237Y-80466211D01*
X194906789Y-80377763D01*
X194802785Y-80308270D01*
X194687223Y-80260403D01*
X194564542Y-80236000D01*
X194087750Y-80236000D01*
X193929000Y-80394750D01*
X193675000Y-80394750D01*
X193516250Y-80236000D01*
X193039458Y-80236000D01*
X192916777Y-80260403D01*
X192801215Y-80308270D01*
X192697211Y-80377763D01*
X192608763Y-80466211D01*
X192539270Y-80570215D01*
X192491403Y-80685777D01*
X192467000Y-80808458D01*
X190756530Y-80808458D01*
X190756382Y-80808310D01*
X190659691Y-80728958D01*
X190578192Y-80674502D01*
X190467875Y-80615536D01*
X190377319Y-80578027D01*
X190257623Y-80541718D01*
X190161490Y-80522596D01*
X190037009Y-80510336D01*
X190012450Y-80510336D01*
X189988000Y-80507928D01*
X189488000Y-80507928D01*
X189463550Y-80510336D01*
X189438991Y-80510336D01*
X189314510Y-80522596D01*
X189218377Y-80541718D01*
X189098681Y-80578027D01*
X189008125Y-80615536D01*
X188897808Y-80674502D01*
X188816309Y-80728958D01*
X188719618Y-80808310D01*
X188650310Y-80877618D01*
X188570958Y-80974309D01*
X188516502Y-81055808D01*
X188457536Y-81166125D01*
X188420027Y-81256681D01*
X188383718Y-81376377D01*
X188364596Y-81472510D01*
X188352336Y-81596991D01*
X188352336Y-81621550D01*
X188349928Y-81646000D01*
X188349928Y-82146000D01*
X188353868Y-82186000D01*
X188328132Y-82186000D01*
X188332072Y-82146000D01*
X188332072Y-81646000D01*
X188329664Y-81621550D01*
X188329664Y-81596991D01*
X188317404Y-81472510D01*
X188298282Y-81376377D01*
X188261973Y-81256681D01*
X188224464Y-81166125D01*
X188165498Y-81055808D01*
X188111042Y-80974309D01*
X188031690Y-80877618D01*
X187962382Y-80808310D01*
X187865691Y-80728958D01*
X187784192Y-80674502D01*
X187673875Y-80615536D01*
X187583319Y-80578027D01*
X187463623Y-80541718D01*
X187367490Y-80522596D01*
X187243009Y-80510336D01*
X187218450Y-80510336D01*
X187194000Y-80507928D01*
X186694000Y-80507928D01*
X186669550Y-80510336D01*
X186644991Y-80510336D01*
X186520510Y-80522596D01*
X186424377Y-80541718D01*
X186304681Y-80578027D01*
X186214125Y-80615536D01*
X186103808Y-80674502D01*
X186022309Y-80728958D01*
X185967425Y-80774000D01*
X185869711Y-80774000D01*
X185825774Y-80730063D01*
X185656256Y-80616795D01*
X185467898Y-80538774D01*
X185267939Y-80499000D01*
X185064061Y-80499000D01*
X184864102Y-80538774D01*
X184675744Y-80616795D01*
X184506226Y-80730063D01*
X184368072Y-80868217D01*
X184368072Y-80430000D01*
X184355812Y-80305518D01*
X184319502Y-80185820D01*
X184260537Y-80075506D01*
X184181185Y-79978815D01*
X184084494Y-79899463D01*
X183974180Y-79840498D01*
X183854482Y-79804188D01*
X183730000Y-79791928D01*
X182030000Y-79791928D01*
X181905518Y-79804188D01*
X181785820Y-79840498D01*
X181675506Y-79899463D01*
X181578815Y-79978815D01*
X181499463Y-80075506D01*
X181440498Y-80185820D01*
X181404188Y-80305518D01*
X181391928Y-80430000D01*
X181391928Y-82130000D01*
X181404188Y-82254482D01*
X181440498Y-82374180D01*
X181499463Y-82484494D01*
X181578815Y-82581185D01*
X181675506Y-82660537D01*
X181785820Y-82719502D01*
X181854687Y-82740393D01*
X181824866Y-82764866D01*
X181639294Y-82990986D01*
X181501401Y-83248966D01*
X181416487Y-83528889D01*
X181387815Y-83820000D01*
X181416487Y-84111111D01*
X181439203Y-84185996D01*
X181193997Y-84431202D01*
X181164999Y-84455000D01*
X181141201Y-84483998D01*
X181141200Y-84483999D01*
X181070025Y-84570725D01*
X180999453Y-84702755D01*
X180969179Y-84802559D01*
X180955997Y-84846015D01*
X180950729Y-84899500D01*
X180941323Y-84995001D01*
X180945000Y-85032333D01*
X180944999Y-91966678D01*
X180941323Y-92004001D01*
X180944999Y-92041323D01*
X180944999Y-92041333D01*
X180955996Y-92152986D01*
X180977695Y-92224518D01*
X180999453Y-92296247D01*
X181070025Y-92428277D01*
X181079867Y-92440269D01*
X181164998Y-92544002D01*
X181194001Y-92567804D01*
X181752204Y-93126009D01*
X181775998Y-93155002D01*
X181804991Y-93178796D01*
X181804995Y-93178800D01*
X181875684Y-93236812D01*
X181891723Y-93249975D01*
X181929187Y-93270000D01*
X179780000Y-93270000D01*
X179780000Y-79450000D01*
X206300000Y-79450000D01*
X206300001Y-93270000D01*
X206300001Y-93270000D01*
G37*
X206300001Y-93270000D02*
X189613661Y-93270000D01*
X189651125Y-93249975D01*
X189766850Y-93155002D01*
X189790653Y-93125998D01*
X191082652Y-91834000D01*
X191945431Y-91834000D01*
X191952310Y-91842382D01*
X192021618Y-91911690D01*
X192118309Y-91991042D01*
X192199808Y-92045498D01*
X192310125Y-92104464D01*
X192400681Y-92141973D01*
X192520377Y-92178282D01*
X192616510Y-92197404D01*
X192740991Y-92209664D01*
X192765550Y-92209664D01*
X192790000Y-92212072D01*
X193290000Y-92212072D01*
X193314450Y-92209664D01*
X193339009Y-92209664D01*
X193463490Y-92197404D01*
X193559623Y-92178282D01*
X193679319Y-92141973D01*
X193769875Y-92104464D01*
X193880192Y-92045498D01*
X193961691Y-91991042D01*
X194058382Y-91911690D01*
X194127690Y-91842382D01*
X194134569Y-91834000D01*
X196009431Y-91834000D01*
X196016310Y-91842382D01*
X196085618Y-91911690D01*
X196182309Y-91991042D01*
X196263808Y-92045498D01*
X196374125Y-92104464D01*
X196464681Y-92141973D01*
X196584377Y-92178282D01*
X196680510Y-92197404D01*
X196804991Y-92209664D01*
X196829550Y-92209664D01*
X196854000Y-92212072D01*
X197354000Y-92212072D01*
X197378450Y-92209664D01*
X197403009Y-92209664D01*
X197527490Y-92197404D01*
X197623623Y-92178282D01*
X197743319Y-92141973D01*
X197833875Y-92104464D01*
X197944192Y-92045498D01*
X198025691Y-91991042D01*
X198122382Y-91911690D01*
X198191690Y-91842382D01*
X198229024Y-91796890D01*
X200488524Y-91796890D01*
X200533175Y-91944099D01*
X200658359Y-92206920D01*
X200832412Y-92440269D01*
X201048645Y-92635178D01*
X201298748Y-92784157D01*
X201573109Y-92881481D01*
X201803000Y-92760814D01*
X201803000Y-91567000D01*
X202057000Y-91567000D01*
X202057000Y-92760814D01*
X202286891Y-92881481D01*
X202561252Y-92784157D01*
X202811355Y-92635178D01*
X203027588Y-92440269D01*
X203201641Y-92206920D01*
X203326825Y-91944099D01*
X203371476Y-91796890D01*
X203250155Y-91567000D01*
X202057000Y-91567000D01*
X201803000Y-91567000D01*
X200609845Y-91567000D01*
X200488524Y-91796890D01*
X198229024Y-91796890D01*
X198271042Y-91745691D01*
X198325498Y-91664192D01*
X198384464Y-91553875D01*
X198421973Y-91463319D01*
X198458282Y-91343623D01*
X198458898Y-91340524D01*
X203714000Y-91340524D01*
X203714000Y-91539476D01*
X203752814Y-91734606D01*
X203828950Y-91918414D01*
X203939482Y-92083837D01*
X204080163Y-92224518D01*
X204245586Y-92335050D01*
X204429394Y-92411186D01*
X204624524Y-92450000D01*
X204823476Y-92450000D01*
X205018606Y-92411186D01*
X205202414Y-92335050D01*
X205367837Y-92224518D01*
X205508518Y-92083837D01*
X205619050Y-91918414D01*
X205695186Y-91734606D01*
X205734000Y-91539476D01*
X205734000Y-91340524D01*
X205695186Y-91145394D01*
X205619050Y-90961586D01*
X205508518Y-90796163D01*
X205367837Y-90655482D01*
X205202414Y-90544950D01*
X205018606Y-90468814D01*
X204823476Y-90430000D01*
X204624524Y-90430000D01*
X204429394Y-90468814D01*
X204245586Y-90544950D01*
X204080163Y-90655482D01*
X203939482Y-90796163D01*
X203828950Y-90961586D01*
X203752814Y-91145394D01*
X203714000Y-91340524D01*
X198458898Y-91340524D01*
X198477404Y-91247490D01*
X198489664Y-91123009D01*
X198489664Y-91098450D01*
X198492072Y-91074000D01*
X198492072Y-90574000D01*
X198488132Y-90534000D01*
X200750197Y-90534000D01*
X200757013Y-90540816D01*
X200658359Y-90673080D01*
X200533175Y-90935901D01*
X200488524Y-91083110D01*
X200609845Y-91313000D01*
X201803000Y-91313000D01*
X201803000Y-91293000D01*
X202057000Y-91293000D01*
X202057000Y-91313000D01*
X203250155Y-91313000D01*
X203371476Y-91083110D01*
X203326825Y-90935901D01*
X203201641Y-90673080D01*
X203102987Y-90540816D01*
X204066015Y-89577789D01*
X204095012Y-89553992D01*
X204189985Y-89438267D01*
X204260557Y-89306238D01*
X204304014Y-89162977D01*
X204315011Y-89051324D01*
X204315011Y-89051316D01*
X204318687Y-89013991D01*
X204315011Y-88976666D01*
X204315011Y-84280252D01*
X204318687Y-84242929D01*
X204315011Y-84205606D01*
X204315011Y-84205597D01*
X204304014Y-84093944D01*
X204260557Y-83950683D01*
X204189985Y-83818654D01*
X204095012Y-83702929D01*
X204066008Y-83679126D01*
X203695885Y-83309003D01*
X203672082Y-83279999D01*
X203556357Y-83185026D01*
X203424328Y-83114454D01*
X203281067Y-83070997D01*
X203209716Y-83063969D01*
X203170706Y-82990986D01*
X202985134Y-82764866D01*
X202955313Y-82740393D01*
X203024180Y-82719502D01*
X203134494Y-82660537D01*
X203231185Y-82581185D01*
X203310537Y-82484494D01*
X203369502Y-82374180D01*
X203405812Y-82254482D01*
X203418072Y-82130000D01*
X203418072Y-80430000D01*
X203405812Y-80305518D01*
X203369502Y-80185820D01*
X203310537Y-80075506D01*
X203231185Y-79978815D01*
X203134494Y-79899463D01*
X203024180Y-79840498D01*
X202904482Y-79804188D01*
X202780000Y-79791928D01*
X201080000Y-79791928D01*
X200955518Y-79804188D01*
X200835820Y-79840498D01*
X200725506Y-79899463D01*
X200628815Y-79978815D01*
X200549463Y-80075506D01*
X200490498Y-80185820D01*
X200454188Y-80305518D01*
X200441928Y-80430000D01*
X200441928Y-82130000D01*
X200454188Y-82254482D01*
X200490498Y-82374180D01*
X200549463Y-82484494D01*
X200628815Y-82581185D01*
X200725506Y-82660537D01*
X200835820Y-82719502D01*
X200904687Y-82740393D01*
X200874866Y-82764866D01*
X200689294Y-82990986D01*
X200601339Y-83155539D01*
X198730802Y-81285003D01*
X198706999Y-81255999D01*
X198591274Y-81161026D01*
X198459245Y-81090454D01*
X198315984Y-81046997D01*
X198204331Y-81036000D01*
X198204320Y-81036000D01*
X198166998Y-81032324D01*
X198129676Y-81036000D01*
X196955298Y-81036000D01*
X196917592Y-81028500D01*
X196766408Y-81028500D01*
X196618128Y-81057994D01*
X196593874Y-81068040D01*
X196456951Y-81033402D01*
X196305967Y-81025629D01*
X196156367Y-81047462D01*
X196013901Y-81098060D01*
X195943965Y-81135441D01*
X195958310Y-81318618D01*
X196135576Y-81495884D01*
X196118959Y-81536000D01*
X195988308Y-81536000D01*
X195864618Y-81412310D01*
X195681441Y-81397965D01*
X195616480Y-81534482D01*
X195616096Y-81536000D01*
X195028750Y-81536000D01*
X194978250Y-81485500D01*
X193929000Y-81485500D01*
X193929000Y-81505500D01*
X193675000Y-81505500D01*
X193675000Y-81485500D01*
X192625750Y-81485500D01*
X192575250Y-81536000D01*
X191117657Y-81536000D01*
X191111404Y-81472510D01*
X191092282Y-81376377D01*
X191055973Y-81256681D01*
X191018464Y-81166125D01*
X190959498Y-81055808D01*
X190905042Y-80974309D01*
X190825690Y-80877618D01*
X190756530Y-80808458D01*
X192467000Y-80808458D01*
X192467000Y-81072750D01*
X192625750Y-81231500D01*
X193675000Y-81231500D01*
X193675000Y-80394750D01*
X193929000Y-80394750D01*
X193929000Y-81231500D01*
X194978250Y-81231500D01*
X195137000Y-81072750D01*
X195137000Y-80808458D01*
X195112597Y-80685777D01*
X195064730Y-80570215D01*
X194995237Y-80466211D01*
X194906789Y-80377763D01*
X194802785Y-80308270D01*
X194687223Y-80260403D01*
X194564542Y-80236000D01*
X194087750Y-80236000D01*
X193929000Y-80394750D01*
X193675000Y-80394750D01*
X193516250Y-80236000D01*
X193039458Y-80236000D01*
X192916777Y-80260403D01*
X192801215Y-80308270D01*
X192697211Y-80377763D01*
X192608763Y-80466211D01*
X192539270Y-80570215D01*
X192491403Y-80685777D01*
X192467000Y-80808458D01*
X190756530Y-80808458D01*
X190756382Y-80808310D01*
X190659691Y-80728958D01*
X190578192Y-80674502D01*
X190467875Y-80615536D01*
X190377319Y-80578027D01*
X190257623Y-80541718D01*
X190161490Y-80522596D01*
X190037009Y-80510336D01*
X190012450Y-80510336D01*
X189988000Y-80507928D01*
X189488000Y-80507928D01*
X189463550Y-80510336D01*
X189438991Y-80510336D01*
X189314510Y-80522596D01*
X189218377Y-80541718D01*
X189098681Y-80578027D01*
X189008125Y-80615536D01*
X188897808Y-80674502D01*
X188816309Y-80728958D01*
X188719618Y-80808310D01*
X188650310Y-80877618D01*
X188570958Y-80974309D01*
X188516502Y-81055808D01*
X188457536Y-81166125D01*
X188420027Y-81256681D01*
X188383718Y-81376377D01*
X188364596Y-81472510D01*
X188352336Y-81596991D01*
X188352336Y-81621550D01*
X188349928Y-81646000D01*
X188349928Y-82146000D01*
X188353868Y-82186000D01*
X188328132Y-82186000D01*
X188332072Y-82146000D01*
X188332072Y-81646000D01*
X188329664Y-81621550D01*
X188329664Y-81596991D01*
X188317404Y-81472510D01*
X188298282Y-81376377D01*
X188261973Y-81256681D01*
X188224464Y-81166125D01*
X188165498Y-81055808D01*
X188111042Y-80974309D01*
X188031690Y-80877618D01*
X187962382Y-80808310D01*
X187865691Y-80728958D01*
X187784192Y-80674502D01*
X187673875Y-80615536D01*
X187583319Y-80578027D01*
X187463623Y-80541718D01*
X187367490Y-80522596D01*
X187243009Y-80510336D01*
X187218450Y-80510336D01*
X187194000Y-80507928D01*
X186694000Y-80507928D01*
X186669550Y-80510336D01*
X186644991Y-80510336D01*
X186520510Y-80522596D01*
X186424377Y-80541718D01*
X186304681Y-80578027D01*
X186214125Y-80615536D01*
X186103808Y-80674502D01*
X186022309Y-80728958D01*
X185967425Y-80774000D01*
X185869711Y-80774000D01*
X185825774Y-80730063D01*
X185656256Y-80616795D01*
X185467898Y-80538774D01*
X185267939Y-80499000D01*
X185064061Y-80499000D01*
X184864102Y-80538774D01*
X184675744Y-80616795D01*
X184506226Y-80730063D01*
X184368072Y-80868217D01*
X184368072Y-80430000D01*
X184355812Y-80305518D01*
X184319502Y-80185820D01*
X184260537Y-80075506D01*
X184181185Y-79978815D01*
X184084494Y-79899463D01*
X183974180Y-79840498D01*
X183854482Y-79804188D01*
X183730000Y-79791928D01*
X182030000Y-79791928D01*
X181905518Y-79804188D01*
X181785820Y-79840498D01*
X181675506Y-79899463D01*
X181578815Y-79978815D01*
X181499463Y-80075506D01*
X181440498Y-80185820D01*
X181404188Y-80305518D01*
X181391928Y-80430000D01*
X181391928Y-82130000D01*
X181404188Y-82254482D01*
X181440498Y-82374180D01*
X181499463Y-82484494D01*
X181578815Y-82581185D01*
X181675506Y-82660537D01*
X181785820Y-82719502D01*
X181854687Y-82740393D01*
X181824866Y-82764866D01*
X181639294Y-82990986D01*
X181501401Y-83248966D01*
X181416487Y-83528889D01*
X181387815Y-83820000D01*
X181416487Y-84111111D01*
X181439203Y-84185996D01*
X181193997Y-84431202D01*
X181164999Y-84455000D01*
X181141201Y-84483998D01*
X181141200Y-84483999D01*
X181070025Y-84570725D01*
X180999453Y-84702755D01*
X180969179Y-84802559D01*
X180955997Y-84846015D01*
X180950729Y-84899500D01*
X180941323Y-84995001D01*
X180945000Y-85032333D01*
X180944999Y-91966678D01*
X180941323Y-92004001D01*
X180944999Y-92041323D01*
X180944999Y-92041333D01*
X180955996Y-92152986D01*
X180977695Y-92224518D01*
X180999453Y-92296247D01*
X181070025Y-92428277D01*
X181079867Y-92440269D01*
X181164998Y-92544002D01*
X181194001Y-92567804D01*
X181752204Y-93126009D01*
X181775998Y-93155002D01*
X181804991Y-93178796D01*
X181804995Y-93178800D01*
X181875684Y-93236812D01*
X181891723Y-93249975D01*
X181929187Y-93270000D01*
X179780000Y-93270000D01*
X179780000Y-79450000D01*
X206300000Y-79450000D01*
X206300001Y-93270000D01*
G36*
X185610208Y-90099792D02*
X185617105Y-90105452D01*
X185585211Y-90126763D01*
X185496763Y-90215211D01*
X185427270Y-90319215D01*
X185379403Y-90434777D01*
X185355000Y-90557458D01*
X185355000Y-90821750D01*
X185513750Y-90980500D01*
X186563000Y-90980500D01*
X186563000Y-90960500D01*
X186817000Y-90960500D01*
X186817000Y-90980500D01*
X187866250Y-90980500D01*
X187960000Y-90886750D01*
X188053750Y-90980500D01*
X189103000Y-90980500D01*
X189103000Y-90960500D01*
X189357000Y-90960500D01*
X189357000Y-90980500D01*
X189377000Y-90980500D01*
X189377000Y-91234500D01*
X189357000Y-91234500D01*
X189357000Y-91254500D01*
X189103000Y-91254500D01*
X189103000Y-91234500D01*
X188053750Y-91234500D01*
X187960000Y-91328250D01*
X187866250Y-91234500D01*
X186817000Y-91234500D01*
X186817000Y-91254500D01*
X186563000Y-91254500D01*
X186563000Y-91234500D01*
X185513750Y-91234500D01*
X185355000Y-91393250D01*
X185355000Y-91657542D01*
X185379403Y-91780223D01*
X185410377Y-91855001D01*
X184303850Y-91855001D01*
X184321476Y-91796890D01*
X184200155Y-91567000D01*
X183007000Y-91567000D01*
X183007000Y-91587000D01*
X182753000Y-91587000D01*
X182753000Y-91567000D01*
X182733000Y-91567000D01*
X182733000Y-91313000D01*
X182753000Y-91313000D01*
X182753000Y-91293000D01*
X183007000Y-91293000D01*
X183007000Y-91313000D01*
X184200155Y-91313000D01*
X184321476Y-91083110D01*
X184276825Y-90935901D01*
X184151641Y-90673080D01*
X183977588Y-90439731D01*
X183761355Y-90244822D01*
X183644477Y-90175201D01*
X183709014Y-90140706D01*
X183889603Y-89992500D01*
X185522155Y-89992500D01*
X185610208Y-90099792D01*
X185610208Y-90099792D01*
G37*
X185610208Y-90099792D02*
X185617105Y-90105452D01*
X185585211Y-90126763D01*
X185496763Y-90215211D01*
X185427270Y-90319215D01*
X185379403Y-90434777D01*
X185355000Y-90557458D01*
X185355000Y-90821750D01*
X185513750Y-90980500D01*
X186563000Y-90980500D01*
X186563000Y-90960500D01*
X186817000Y-90960500D01*
X186817000Y-90980500D01*
X187866250Y-90980500D01*
X187960000Y-90886750D01*
X188053750Y-90980500D01*
X189103000Y-90980500D01*
X189103000Y-90960500D01*
X189357000Y-90960500D01*
X189357000Y-90980500D01*
X189377000Y-90980500D01*
X189377000Y-91234500D01*
X189357000Y-91234500D01*
X189357000Y-91254500D01*
X189103000Y-91254500D01*
X189103000Y-91234500D01*
X188053750Y-91234500D01*
X187960000Y-91328250D01*
X187866250Y-91234500D01*
X186817000Y-91234500D01*
X186817000Y-91254500D01*
X186563000Y-91254500D01*
X186563000Y-91234500D01*
X185513750Y-91234500D01*
X185355000Y-91393250D01*
X185355000Y-91657542D01*
X185379403Y-91780223D01*
X185410377Y-91855001D01*
X184303850Y-91855001D01*
X184321476Y-91796890D01*
X184200155Y-91567000D01*
X183007000Y-91567000D01*
X183007000Y-91587000D01*
X182753000Y-91587000D01*
X182753000Y-91567000D01*
X182733000Y-91567000D01*
X182733000Y-91313000D01*
X182753000Y-91313000D01*
X182753000Y-91293000D01*
X183007000Y-91293000D01*
X183007000Y-91313000D01*
X184200155Y-91313000D01*
X184321476Y-91083110D01*
X184276825Y-90935901D01*
X184151641Y-90673080D01*
X183977588Y-90439731D01*
X183761355Y-90244822D01*
X183644477Y-90175201D01*
X183709014Y-90140706D01*
X183889603Y-89992500D01*
X185522155Y-89992500D01*
X185610208Y-90099792D01*
G04 #@! TD*
M02*
