G04 #@! TF.GenerationSoftware,KiCad,Pcbnew,5.0.0*
G04 #@! TF.CreationDate,2018-11-11T14:48:16-05:00*
G04 #@! TF.ProjectId,Pi-Temp_Humidity,50692D54656D705F48756D6964697479,rev?*
G04 #@! TF.SameCoordinates,Original*
G04 #@! TF.FileFunction,Paste,Top*
G04 #@! TF.FilePolarity,Positive*
%FSLAX46Y46*%
G04 Gerber Fmt 4.6, Leading zero omitted, Abs format (unit mm)*
G04 Created by KiCad (PCBNEW 5.0.0) date Sun Nov 11 14:48:16 2018*
%MOMM*%
%LPD*%
G01*
G04 APERTURE LIST*
%ADD10C,0.150000*%
%ADD11R,0.300000X0.300000*%
%ADD12C,0.100000*%
%ADD13C,0.975000*%
G04 APERTURE END LIST*
D10*
G36*
X204724000Y-91071700D02*
X204825600Y-91084400D01*
X204914500Y-91122500D01*
X204978000Y-91173300D01*
X205041500Y-91236800D01*
X205079600Y-91338400D01*
X205092300Y-91427300D01*
X205092300Y-91503500D01*
X205066900Y-91592400D01*
X205028800Y-91655900D01*
X204939900Y-91744800D01*
X204876400Y-91782900D01*
X204787500Y-91808300D01*
X204660500Y-91808300D01*
X204571600Y-91782900D01*
X204508100Y-91744800D01*
X204419200Y-91655900D01*
X204368400Y-91554300D01*
X204355700Y-91503500D01*
X204355700Y-91376500D01*
X204393800Y-91262200D01*
X204508100Y-91135200D01*
X204571600Y-91097100D01*
X204660500Y-91071700D01*
X204685900Y-91071700D01*
X204724000Y-91071700D01*
G37*
X204724000Y-91071700D02*
X204825600Y-91084400D01*
X204914500Y-91122500D01*
X204978000Y-91173300D01*
X205041500Y-91236800D01*
X205079600Y-91338400D01*
X205092300Y-91427300D01*
X205092300Y-91503500D01*
X205066900Y-91592400D01*
X205028800Y-91655900D01*
X204939900Y-91744800D01*
X204876400Y-91782900D01*
X204787500Y-91808300D01*
X204660500Y-91808300D01*
X204571600Y-91782900D01*
X204508100Y-91744800D01*
X204419200Y-91655900D01*
X204368400Y-91554300D01*
X204355700Y-91503500D01*
X204355700Y-91376500D01*
X204393800Y-91262200D01*
X204508100Y-91135200D01*
X204571600Y-91097100D01*
X204660500Y-91071700D01*
X204685900Y-91071700D01*
X204724000Y-91071700D01*
D11*
G04 #@! TO.C,U1*
X196342000Y-82796000D03*
X196842000Y-82796000D03*
X196842000Y-81796000D03*
X196342000Y-81796000D03*
X196342000Y-82296000D03*
X196842000Y-82296000D03*
G04 #@! TD*
D12*
G04 #@! TO.C,C1*
G36*
X194282142Y-80872174D02*
X194305803Y-80875684D01*
X194329007Y-80881496D01*
X194351529Y-80889554D01*
X194373153Y-80899782D01*
X194393670Y-80912079D01*
X194412883Y-80926329D01*
X194430607Y-80942393D01*
X194446671Y-80960117D01*
X194460921Y-80979330D01*
X194473218Y-80999847D01*
X194483446Y-81021471D01*
X194491504Y-81043993D01*
X194497316Y-81067197D01*
X194500826Y-81090858D01*
X194502000Y-81114750D01*
X194502000Y-81602250D01*
X194500826Y-81626142D01*
X194497316Y-81649803D01*
X194491504Y-81673007D01*
X194483446Y-81695529D01*
X194473218Y-81717153D01*
X194460921Y-81737670D01*
X194446671Y-81756883D01*
X194430607Y-81774607D01*
X194412883Y-81790671D01*
X194393670Y-81804921D01*
X194373153Y-81817218D01*
X194351529Y-81827446D01*
X194329007Y-81835504D01*
X194305803Y-81841316D01*
X194282142Y-81844826D01*
X194258250Y-81846000D01*
X193345750Y-81846000D01*
X193321858Y-81844826D01*
X193298197Y-81841316D01*
X193274993Y-81835504D01*
X193252471Y-81827446D01*
X193230847Y-81817218D01*
X193210330Y-81804921D01*
X193191117Y-81790671D01*
X193173393Y-81774607D01*
X193157329Y-81756883D01*
X193143079Y-81737670D01*
X193130782Y-81717153D01*
X193120554Y-81695529D01*
X193112496Y-81673007D01*
X193106684Y-81649803D01*
X193103174Y-81626142D01*
X193102000Y-81602250D01*
X193102000Y-81114750D01*
X193103174Y-81090858D01*
X193106684Y-81067197D01*
X193112496Y-81043993D01*
X193120554Y-81021471D01*
X193130782Y-80999847D01*
X193143079Y-80979330D01*
X193157329Y-80960117D01*
X193173393Y-80942393D01*
X193191117Y-80926329D01*
X193210330Y-80912079D01*
X193230847Y-80899782D01*
X193252471Y-80889554D01*
X193274993Y-80881496D01*
X193298197Y-80875684D01*
X193321858Y-80872174D01*
X193345750Y-80871000D01*
X194258250Y-80871000D01*
X194282142Y-80872174D01*
X194282142Y-80872174D01*
G37*
D13*
X193802000Y-81358500D03*
D12*
G36*
X194282142Y-82747174D02*
X194305803Y-82750684D01*
X194329007Y-82756496D01*
X194351529Y-82764554D01*
X194373153Y-82774782D01*
X194393670Y-82787079D01*
X194412883Y-82801329D01*
X194430607Y-82817393D01*
X194446671Y-82835117D01*
X194460921Y-82854330D01*
X194473218Y-82874847D01*
X194483446Y-82896471D01*
X194491504Y-82918993D01*
X194497316Y-82942197D01*
X194500826Y-82965858D01*
X194502000Y-82989750D01*
X194502000Y-83477250D01*
X194500826Y-83501142D01*
X194497316Y-83524803D01*
X194491504Y-83548007D01*
X194483446Y-83570529D01*
X194473218Y-83592153D01*
X194460921Y-83612670D01*
X194446671Y-83631883D01*
X194430607Y-83649607D01*
X194412883Y-83665671D01*
X194393670Y-83679921D01*
X194373153Y-83692218D01*
X194351529Y-83702446D01*
X194329007Y-83710504D01*
X194305803Y-83716316D01*
X194282142Y-83719826D01*
X194258250Y-83721000D01*
X193345750Y-83721000D01*
X193321858Y-83719826D01*
X193298197Y-83716316D01*
X193274993Y-83710504D01*
X193252471Y-83702446D01*
X193230847Y-83692218D01*
X193210330Y-83679921D01*
X193191117Y-83665671D01*
X193173393Y-83649607D01*
X193157329Y-83631883D01*
X193143079Y-83612670D01*
X193130782Y-83592153D01*
X193120554Y-83570529D01*
X193112496Y-83548007D01*
X193106684Y-83524803D01*
X193103174Y-83501142D01*
X193102000Y-83477250D01*
X193102000Y-82989750D01*
X193103174Y-82965858D01*
X193106684Y-82942197D01*
X193112496Y-82918993D01*
X193120554Y-82896471D01*
X193130782Y-82874847D01*
X193143079Y-82854330D01*
X193157329Y-82835117D01*
X193173393Y-82817393D01*
X193191117Y-82801329D01*
X193210330Y-82787079D01*
X193230847Y-82774782D01*
X193252471Y-82764554D01*
X193274993Y-82756496D01*
X193298197Y-82750684D01*
X193321858Y-82747174D01*
X193345750Y-82746000D01*
X194258250Y-82746000D01*
X194282142Y-82747174D01*
X194282142Y-82747174D01*
G37*
D13*
X193802000Y-83233500D03*
G04 #@! TD*
D12*
G04 #@! TO.C,R2*
G36*
X189710142Y-88746174D02*
X189733803Y-88749684D01*
X189757007Y-88755496D01*
X189779529Y-88763554D01*
X189801153Y-88773782D01*
X189821670Y-88786079D01*
X189840883Y-88800329D01*
X189858607Y-88816393D01*
X189874671Y-88834117D01*
X189888921Y-88853330D01*
X189901218Y-88873847D01*
X189911446Y-88895471D01*
X189919504Y-88917993D01*
X189925316Y-88941197D01*
X189928826Y-88964858D01*
X189930000Y-88988750D01*
X189930000Y-89476250D01*
X189928826Y-89500142D01*
X189925316Y-89523803D01*
X189919504Y-89547007D01*
X189911446Y-89569529D01*
X189901218Y-89591153D01*
X189888921Y-89611670D01*
X189874671Y-89630883D01*
X189858607Y-89648607D01*
X189840883Y-89664671D01*
X189821670Y-89678921D01*
X189801153Y-89691218D01*
X189779529Y-89701446D01*
X189757007Y-89709504D01*
X189733803Y-89715316D01*
X189710142Y-89718826D01*
X189686250Y-89720000D01*
X188773750Y-89720000D01*
X188749858Y-89718826D01*
X188726197Y-89715316D01*
X188702993Y-89709504D01*
X188680471Y-89701446D01*
X188658847Y-89691218D01*
X188638330Y-89678921D01*
X188619117Y-89664671D01*
X188601393Y-89648607D01*
X188585329Y-89630883D01*
X188571079Y-89611670D01*
X188558782Y-89591153D01*
X188548554Y-89569529D01*
X188540496Y-89547007D01*
X188534684Y-89523803D01*
X188531174Y-89500142D01*
X188530000Y-89476250D01*
X188530000Y-88988750D01*
X188531174Y-88964858D01*
X188534684Y-88941197D01*
X188540496Y-88917993D01*
X188548554Y-88895471D01*
X188558782Y-88873847D01*
X188571079Y-88853330D01*
X188585329Y-88834117D01*
X188601393Y-88816393D01*
X188619117Y-88800329D01*
X188638330Y-88786079D01*
X188658847Y-88773782D01*
X188680471Y-88763554D01*
X188702993Y-88755496D01*
X188726197Y-88749684D01*
X188749858Y-88746174D01*
X188773750Y-88745000D01*
X189686250Y-88745000D01*
X189710142Y-88746174D01*
X189710142Y-88746174D01*
G37*
D13*
X189230000Y-89232500D03*
D12*
G36*
X189710142Y-90621174D02*
X189733803Y-90624684D01*
X189757007Y-90630496D01*
X189779529Y-90638554D01*
X189801153Y-90648782D01*
X189821670Y-90661079D01*
X189840883Y-90675329D01*
X189858607Y-90691393D01*
X189874671Y-90709117D01*
X189888921Y-90728330D01*
X189901218Y-90748847D01*
X189911446Y-90770471D01*
X189919504Y-90792993D01*
X189925316Y-90816197D01*
X189928826Y-90839858D01*
X189930000Y-90863750D01*
X189930000Y-91351250D01*
X189928826Y-91375142D01*
X189925316Y-91398803D01*
X189919504Y-91422007D01*
X189911446Y-91444529D01*
X189901218Y-91466153D01*
X189888921Y-91486670D01*
X189874671Y-91505883D01*
X189858607Y-91523607D01*
X189840883Y-91539671D01*
X189821670Y-91553921D01*
X189801153Y-91566218D01*
X189779529Y-91576446D01*
X189757007Y-91584504D01*
X189733803Y-91590316D01*
X189710142Y-91593826D01*
X189686250Y-91595000D01*
X188773750Y-91595000D01*
X188749858Y-91593826D01*
X188726197Y-91590316D01*
X188702993Y-91584504D01*
X188680471Y-91576446D01*
X188658847Y-91566218D01*
X188638330Y-91553921D01*
X188619117Y-91539671D01*
X188601393Y-91523607D01*
X188585329Y-91505883D01*
X188571079Y-91486670D01*
X188558782Y-91466153D01*
X188548554Y-91444529D01*
X188540496Y-91422007D01*
X188534684Y-91398803D01*
X188531174Y-91375142D01*
X188530000Y-91351250D01*
X188530000Y-90863750D01*
X188531174Y-90839858D01*
X188534684Y-90816197D01*
X188540496Y-90792993D01*
X188548554Y-90770471D01*
X188558782Y-90748847D01*
X188571079Y-90728330D01*
X188585329Y-90709117D01*
X188601393Y-90691393D01*
X188619117Y-90675329D01*
X188638330Y-90661079D01*
X188658847Y-90648782D01*
X188680471Y-90638554D01*
X188702993Y-90630496D01*
X188726197Y-90624684D01*
X188749858Y-90621174D01*
X188773750Y-90620000D01*
X189686250Y-90620000D01*
X189710142Y-90621174D01*
X189710142Y-90621174D01*
G37*
D13*
X189230000Y-91107500D03*
G04 #@! TD*
D12*
G04 #@! TO.C,R1*
G36*
X187170142Y-90621174D02*
X187193803Y-90624684D01*
X187217007Y-90630496D01*
X187239529Y-90638554D01*
X187261153Y-90648782D01*
X187281670Y-90661079D01*
X187300883Y-90675329D01*
X187318607Y-90691393D01*
X187334671Y-90709117D01*
X187348921Y-90728330D01*
X187361218Y-90748847D01*
X187371446Y-90770471D01*
X187379504Y-90792993D01*
X187385316Y-90816197D01*
X187388826Y-90839858D01*
X187390000Y-90863750D01*
X187390000Y-91351250D01*
X187388826Y-91375142D01*
X187385316Y-91398803D01*
X187379504Y-91422007D01*
X187371446Y-91444529D01*
X187361218Y-91466153D01*
X187348921Y-91486670D01*
X187334671Y-91505883D01*
X187318607Y-91523607D01*
X187300883Y-91539671D01*
X187281670Y-91553921D01*
X187261153Y-91566218D01*
X187239529Y-91576446D01*
X187217007Y-91584504D01*
X187193803Y-91590316D01*
X187170142Y-91593826D01*
X187146250Y-91595000D01*
X186233750Y-91595000D01*
X186209858Y-91593826D01*
X186186197Y-91590316D01*
X186162993Y-91584504D01*
X186140471Y-91576446D01*
X186118847Y-91566218D01*
X186098330Y-91553921D01*
X186079117Y-91539671D01*
X186061393Y-91523607D01*
X186045329Y-91505883D01*
X186031079Y-91486670D01*
X186018782Y-91466153D01*
X186008554Y-91444529D01*
X186000496Y-91422007D01*
X185994684Y-91398803D01*
X185991174Y-91375142D01*
X185990000Y-91351250D01*
X185990000Y-90863750D01*
X185991174Y-90839858D01*
X185994684Y-90816197D01*
X186000496Y-90792993D01*
X186008554Y-90770471D01*
X186018782Y-90748847D01*
X186031079Y-90728330D01*
X186045329Y-90709117D01*
X186061393Y-90691393D01*
X186079117Y-90675329D01*
X186098330Y-90661079D01*
X186118847Y-90648782D01*
X186140471Y-90638554D01*
X186162993Y-90630496D01*
X186186197Y-90624684D01*
X186209858Y-90621174D01*
X186233750Y-90620000D01*
X187146250Y-90620000D01*
X187170142Y-90621174D01*
X187170142Y-90621174D01*
G37*
D13*
X186690000Y-91107500D03*
D12*
G36*
X187170142Y-88746174D02*
X187193803Y-88749684D01*
X187217007Y-88755496D01*
X187239529Y-88763554D01*
X187261153Y-88773782D01*
X187281670Y-88786079D01*
X187300883Y-88800329D01*
X187318607Y-88816393D01*
X187334671Y-88834117D01*
X187348921Y-88853330D01*
X187361218Y-88873847D01*
X187371446Y-88895471D01*
X187379504Y-88917993D01*
X187385316Y-88941197D01*
X187388826Y-88964858D01*
X187390000Y-88988750D01*
X187390000Y-89476250D01*
X187388826Y-89500142D01*
X187385316Y-89523803D01*
X187379504Y-89547007D01*
X187371446Y-89569529D01*
X187361218Y-89591153D01*
X187348921Y-89611670D01*
X187334671Y-89630883D01*
X187318607Y-89648607D01*
X187300883Y-89664671D01*
X187281670Y-89678921D01*
X187261153Y-89691218D01*
X187239529Y-89701446D01*
X187217007Y-89709504D01*
X187193803Y-89715316D01*
X187170142Y-89718826D01*
X187146250Y-89720000D01*
X186233750Y-89720000D01*
X186209858Y-89718826D01*
X186186197Y-89715316D01*
X186162993Y-89709504D01*
X186140471Y-89701446D01*
X186118847Y-89691218D01*
X186098330Y-89678921D01*
X186079117Y-89664671D01*
X186061393Y-89648607D01*
X186045329Y-89630883D01*
X186031079Y-89611670D01*
X186018782Y-89591153D01*
X186008554Y-89569529D01*
X186000496Y-89547007D01*
X185994684Y-89523803D01*
X185991174Y-89500142D01*
X185990000Y-89476250D01*
X185990000Y-88988750D01*
X185991174Y-88964858D01*
X185994684Y-88941197D01*
X186000496Y-88917993D01*
X186008554Y-88895471D01*
X186018782Y-88873847D01*
X186031079Y-88853330D01*
X186045329Y-88834117D01*
X186061393Y-88816393D01*
X186079117Y-88800329D01*
X186098330Y-88786079D01*
X186118847Y-88773782D01*
X186140471Y-88763554D01*
X186162993Y-88755496D01*
X186186197Y-88749684D01*
X186209858Y-88746174D01*
X186233750Y-88745000D01*
X187146250Y-88745000D01*
X187170142Y-88746174D01*
X187170142Y-88746174D01*
G37*
D13*
X186690000Y-89232500D03*
G04 #@! TD*
M02*
