G04 #@! TF.GenerationSoftware,KiCad,Pcbnew,5.0.0*
G04 #@! TF.CreationDate,2018-11-11T14:48:16-05:00*
G04 #@! TF.ProjectId,Pi-Temp_Humidity,50692D54656D705F48756D6964697479,rev?*
G04 #@! TF.SameCoordinates,Original*
G04 #@! TF.FileFunction,Copper,L2,Bot,Signal*
G04 #@! TF.FilePolarity,Positive*
%FSLAX46Y46*%
G04 Gerber Fmt 4.6, Leading zero omitted, Abs format (unit mm)*
G04 Created by KiCad (PCBNEW 5.0.0) date Sun Nov 11 14:48:16 2018*
%MOMM*%
%LPD*%
G01*
G04 APERTURE LIST*
G04 #@! TA.AperFunction,ComponentPad*
%ADD10R,1.700000X1.700000*%
G04 #@! TD*
G04 #@! TA.AperFunction,ComponentPad*
%ADD11O,1.700000X1.700000*%
G04 #@! TD*
G04 #@! TA.AperFunction,ViaPad*
%ADD12C,0.800000*%
G04 #@! TD*
G04 #@! TA.AperFunction,Conductor*
%ADD13C,0.500000*%
G04 #@! TD*
G04 #@! TA.AperFunction,Conductor*
%ADD14C,0.250000*%
G04 #@! TD*
G04 #@! TA.AperFunction,Conductor*
%ADD15C,0.254000*%
G04 #@! TD*
G04 APERTURE END LIST*
D10*
G04 #@! TO.P,J4,1*
G04 #@! TO.N,Earth*
X201930000Y-81280000D03*
D11*
G04 #@! TO.P,J4,2*
G04 #@! TO.N,GPIO_PASSTHRU*
X201930000Y-83820000D03*
G04 #@! TO.P,J4,3*
G04 #@! TO.N,SCL*
X201930000Y-86360000D03*
G04 #@! TO.P,J4,4*
G04 #@! TO.N,SDA*
X201930000Y-88900000D03*
G04 #@! TO.P,J4,5*
G04 #@! TO.N,VDD*
X201930000Y-91440000D03*
G04 #@! TD*
D10*
G04 #@! TO.P,J1,1*
G04 #@! TO.N,Earth*
X182880000Y-81280000D03*
D11*
G04 #@! TO.P,J1,2*
G04 #@! TO.N,GPIO*
X182880000Y-83820000D03*
G04 #@! TO.P,J1,3*
G04 #@! TO.N,SCL*
X182880000Y-86360000D03*
G04 #@! TO.P,J1,4*
G04 #@! TO.N,SDA*
X182880000Y-88900000D03*
G04 #@! TO.P,J1,5*
G04 #@! TO.N,VDD*
X182880000Y-91440000D03*
G04 #@! TD*
D12*
G04 #@! TO.N,VDD*
X191770000Y-80518000D03*
X195326000Y-81534000D03*
X180340000Y-91440000D03*
X180340000Y-90170000D03*
G04 #@! TO.N,Earth*
X195072000Y-83058000D03*
X185166000Y-81534000D03*
G04 #@! TO.N,Net-(JP1-Pad2)*
X194652900Y-89852500D03*
X195072000Y-84150200D03*
G04 #@! TD*
D13*
G04 #@! TO.N,VDD*
X182880000Y-91440000D02*
X180340000Y-91440000D01*
X180340000Y-91440000D02*
X180340000Y-90170000D01*
D14*
G04 #@! TO.N,Net-(JP1-Pad2)*
X194652900Y-84569300D02*
X195072000Y-84150200D01*
X194652900Y-89852500D02*
X194652900Y-84569300D01*
G04 #@! TD*
D15*
G04 #@! TO.N,Earth*
G36*
X206300001Y-93270000D02*
X179780000Y-93270000D01*
X179780000Y-92328317D01*
X180134126Y-92475000D01*
X180545874Y-92475000D01*
X180908007Y-92325000D01*
X181685344Y-92325000D01*
X181809375Y-92510625D01*
X182300582Y-92838839D01*
X182733744Y-92925000D01*
X183026256Y-92925000D01*
X183459418Y-92838839D01*
X183950625Y-92510625D01*
X184278839Y-92019418D01*
X184394092Y-91440000D01*
X184278839Y-90860582D01*
X183950625Y-90369375D01*
X183652239Y-90170000D01*
X183950625Y-89970625D01*
X184167114Y-89646626D01*
X193617900Y-89646626D01*
X193617900Y-90058374D01*
X193775469Y-90438780D01*
X194066620Y-90729931D01*
X194447026Y-90887500D01*
X194858774Y-90887500D01*
X195239180Y-90729931D01*
X195530331Y-90438780D01*
X195687900Y-90058374D01*
X195687900Y-89646626D01*
X195530331Y-89266220D01*
X195412900Y-89148789D01*
X195412900Y-85129271D01*
X195658280Y-85027631D01*
X195949431Y-84736480D01*
X196107000Y-84356074D01*
X196107000Y-83944326D01*
X196055503Y-83820000D01*
X200415908Y-83820000D01*
X200531161Y-84399418D01*
X200859375Y-84890625D01*
X201157761Y-85090000D01*
X200859375Y-85289375D01*
X200531161Y-85780582D01*
X200415908Y-86360000D01*
X200531161Y-86939418D01*
X200859375Y-87430625D01*
X201157761Y-87630000D01*
X200859375Y-87829375D01*
X200531161Y-88320582D01*
X200415908Y-88900000D01*
X200531161Y-89479418D01*
X200859375Y-89970625D01*
X201157761Y-90170000D01*
X200859375Y-90369375D01*
X200531161Y-90860582D01*
X200415908Y-91440000D01*
X200531161Y-92019418D01*
X200859375Y-92510625D01*
X201350582Y-92838839D01*
X201783744Y-92925000D01*
X202076256Y-92925000D01*
X202509418Y-92838839D01*
X203000625Y-92510625D01*
X203328839Y-92019418D01*
X203444092Y-91440000D01*
X203328839Y-90860582D01*
X203000625Y-90369375D01*
X202702239Y-90170000D01*
X203000625Y-89970625D01*
X203328839Y-89479418D01*
X203444092Y-88900000D01*
X203328839Y-88320582D01*
X203000625Y-87829375D01*
X202702239Y-87630000D01*
X203000625Y-87430625D01*
X203328839Y-86939418D01*
X203444092Y-86360000D01*
X203328839Y-85780582D01*
X203000625Y-85289375D01*
X202702239Y-85090000D01*
X203000625Y-84890625D01*
X203328839Y-84399418D01*
X203444092Y-83820000D01*
X203328839Y-83240582D01*
X203000625Y-82749375D01*
X202978967Y-82734904D01*
X203139698Y-82668327D01*
X203318327Y-82489699D01*
X203415000Y-82256310D01*
X203415000Y-81565750D01*
X203256250Y-81407000D01*
X202057000Y-81407000D01*
X202057000Y-81427000D01*
X201803000Y-81427000D01*
X201803000Y-81407000D01*
X200603750Y-81407000D01*
X200445000Y-81565750D01*
X200445000Y-82256310D01*
X200541673Y-82489699D01*
X200720302Y-82668327D01*
X200881033Y-82734904D01*
X200859375Y-82749375D01*
X200531161Y-83240582D01*
X200415908Y-83820000D01*
X196055503Y-83820000D01*
X195949431Y-83563920D01*
X195658280Y-83272769D01*
X195277874Y-83115200D01*
X194866126Y-83115200D01*
X194485720Y-83272769D01*
X194194569Y-83563920D01*
X194037000Y-83944326D01*
X194037000Y-84123098D01*
X193936997Y-84272763D01*
X193878012Y-84569300D01*
X193892901Y-84644152D01*
X193892900Y-89148789D01*
X193775469Y-89266220D01*
X193617900Y-89646626D01*
X184167114Y-89646626D01*
X184278839Y-89479418D01*
X184394092Y-88900000D01*
X184278839Y-88320582D01*
X183950625Y-87829375D01*
X183652239Y-87630000D01*
X183950625Y-87430625D01*
X184278839Y-86939418D01*
X184394092Y-86360000D01*
X184278839Y-85780582D01*
X183950625Y-85289375D01*
X183652239Y-85090000D01*
X183950625Y-84890625D01*
X184278839Y-84399418D01*
X184394092Y-83820000D01*
X184278839Y-83240582D01*
X183950625Y-82749375D01*
X183928967Y-82734904D01*
X184089698Y-82668327D01*
X184268327Y-82489699D01*
X184365000Y-82256310D01*
X184365000Y-81565750D01*
X184206250Y-81407000D01*
X183007000Y-81407000D01*
X183007000Y-81427000D01*
X182753000Y-81427000D01*
X182753000Y-81407000D01*
X181553750Y-81407000D01*
X181395000Y-81565750D01*
X181395000Y-82256310D01*
X181491673Y-82489699D01*
X181670302Y-82668327D01*
X181831033Y-82734904D01*
X181809375Y-82749375D01*
X181481161Y-83240582D01*
X181365908Y-83820000D01*
X181481161Y-84399418D01*
X181809375Y-84890625D01*
X182107761Y-85090000D01*
X181809375Y-85289375D01*
X181481161Y-85780582D01*
X181365908Y-86360000D01*
X181481161Y-86939418D01*
X181809375Y-87430625D01*
X182107761Y-87630000D01*
X181809375Y-87829375D01*
X181481161Y-88320582D01*
X181365908Y-88900000D01*
X181481161Y-89479418D01*
X181809375Y-89970625D01*
X182107761Y-90170000D01*
X181809375Y-90369375D01*
X181685344Y-90555000D01*
X181300804Y-90555000D01*
X181375000Y-90375874D01*
X181375000Y-89964126D01*
X181217431Y-89583720D01*
X180926280Y-89292569D01*
X180545874Y-89135000D01*
X180134126Y-89135000D01*
X179780000Y-89281683D01*
X179780000Y-80303690D01*
X181395000Y-80303690D01*
X181395000Y-80994250D01*
X181553750Y-81153000D01*
X182753000Y-81153000D01*
X182753000Y-79953750D01*
X183007000Y-79953750D01*
X183007000Y-81153000D01*
X184206250Y-81153000D01*
X184365000Y-80994250D01*
X184365000Y-80312126D01*
X190735000Y-80312126D01*
X190735000Y-80723874D01*
X190892569Y-81104280D01*
X191183720Y-81395431D01*
X191564126Y-81553000D01*
X191975874Y-81553000D01*
X192356280Y-81395431D01*
X192423585Y-81328126D01*
X194291000Y-81328126D01*
X194291000Y-81739874D01*
X194448569Y-82120280D01*
X194739720Y-82411431D01*
X195120126Y-82569000D01*
X195531874Y-82569000D01*
X195912280Y-82411431D01*
X196203431Y-82120280D01*
X196361000Y-81739874D01*
X196361000Y-81328126D01*
X196203431Y-80947720D01*
X195912280Y-80656569D01*
X195531874Y-80499000D01*
X195120126Y-80499000D01*
X194739720Y-80656569D01*
X194448569Y-80947720D01*
X194291000Y-81328126D01*
X192423585Y-81328126D01*
X192647431Y-81104280D01*
X192805000Y-80723874D01*
X192805000Y-80312126D01*
X192801506Y-80303690D01*
X200445000Y-80303690D01*
X200445000Y-80994250D01*
X200603750Y-81153000D01*
X201803000Y-81153000D01*
X201803000Y-79953750D01*
X202057000Y-79953750D01*
X202057000Y-81153000D01*
X203256250Y-81153000D01*
X203415000Y-80994250D01*
X203415000Y-80303690D01*
X203318327Y-80070301D01*
X203139698Y-79891673D01*
X202906309Y-79795000D01*
X202215750Y-79795000D01*
X202057000Y-79953750D01*
X201803000Y-79953750D01*
X201644250Y-79795000D01*
X200953691Y-79795000D01*
X200720302Y-79891673D01*
X200541673Y-80070301D01*
X200445000Y-80303690D01*
X192801506Y-80303690D01*
X192647431Y-79931720D01*
X192356280Y-79640569D01*
X191975874Y-79483000D01*
X191564126Y-79483000D01*
X191183720Y-79640569D01*
X190892569Y-79931720D01*
X190735000Y-80312126D01*
X184365000Y-80312126D01*
X184365000Y-80303690D01*
X184268327Y-80070301D01*
X184089698Y-79891673D01*
X183856309Y-79795000D01*
X183165750Y-79795000D01*
X183007000Y-79953750D01*
X182753000Y-79953750D01*
X182594250Y-79795000D01*
X181903691Y-79795000D01*
X181670302Y-79891673D01*
X181491673Y-80070301D01*
X181395000Y-80303690D01*
X179780000Y-80303690D01*
X179780000Y-79450000D01*
X206300000Y-79450000D01*
X206300001Y-93270000D01*
X206300001Y-93270000D01*
G37*
X206300001Y-93270000D02*
X179780000Y-93270000D01*
X179780000Y-92328317D01*
X180134126Y-92475000D01*
X180545874Y-92475000D01*
X180908007Y-92325000D01*
X181685344Y-92325000D01*
X181809375Y-92510625D01*
X182300582Y-92838839D01*
X182733744Y-92925000D01*
X183026256Y-92925000D01*
X183459418Y-92838839D01*
X183950625Y-92510625D01*
X184278839Y-92019418D01*
X184394092Y-91440000D01*
X184278839Y-90860582D01*
X183950625Y-90369375D01*
X183652239Y-90170000D01*
X183950625Y-89970625D01*
X184167114Y-89646626D01*
X193617900Y-89646626D01*
X193617900Y-90058374D01*
X193775469Y-90438780D01*
X194066620Y-90729931D01*
X194447026Y-90887500D01*
X194858774Y-90887500D01*
X195239180Y-90729931D01*
X195530331Y-90438780D01*
X195687900Y-90058374D01*
X195687900Y-89646626D01*
X195530331Y-89266220D01*
X195412900Y-89148789D01*
X195412900Y-85129271D01*
X195658280Y-85027631D01*
X195949431Y-84736480D01*
X196107000Y-84356074D01*
X196107000Y-83944326D01*
X196055503Y-83820000D01*
X200415908Y-83820000D01*
X200531161Y-84399418D01*
X200859375Y-84890625D01*
X201157761Y-85090000D01*
X200859375Y-85289375D01*
X200531161Y-85780582D01*
X200415908Y-86360000D01*
X200531161Y-86939418D01*
X200859375Y-87430625D01*
X201157761Y-87630000D01*
X200859375Y-87829375D01*
X200531161Y-88320582D01*
X200415908Y-88900000D01*
X200531161Y-89479418D01*
X200859375Y-89970625D01*
X201157761Y-90170000D01*
X200859375Y-90369375D01*
X200531161Y-90860582D01*
X200415908Y-91440000D01*
X200531161Y-92019418D01*
X200859375Y-92510625D01*
X201350582Y-92838839D01*
X201783744Y-92925000D01*
X202076256Y-92925000D01*
X202509418Y-92838839D01*
X203000625Y-92510625D01*
X203328839Y-92019418D01*
X203444092Y-91440000D01*
X203328839Y-90860582D01*
X203000625Y-90369375D01*
X202702239Y-90170000D01*
X203000625Y-89970625D01*
X203328839Y-89479418D01*
X203444092Y-88900000D01*
X203328839Y-88320582D01*
X203000625Y-87829375D01*
X202702239Y-87630000D01*
X203000625Y-87430625D01*
X203328839Y-86939418D01*
X203444092Y-86360000D01*
X203328839Y-85780582D01*
X203000625Y-85289375D01*
X202702239Y-85090000D01*
X203000625Y-84890625D01*
X203328839Y-84399418D01*
X203444092Y-83820000D01*
X203328839Y-83240582D01*
X203000625Y-82749375D01*
X202978967Y-82734904D01*
X203139698Y-82668327D01*
X203318327Y-82489699D01*
X203415000Y-82256310D01*
X203415000Y-81565750D01*
X203256250Y-81407000D01*
X202057000Y-81407000D01*
X202057000Y-81427000D01*
X201803000Y-81427000D01*
X201803000Y-81407000D01*
X200603750Y-81407000D01*
X200445000Y-81565750D01*
X200445000Y-82256310D01*
X200541673Y-82489699D01*
X200720302Y-82668327D01*
X200881033Y-82734904D01*
X200859375Y-82749375D01*
X200531161Y-83240582D01*
X200415908Y-83820000D01*
X196055503Y-83820000D01*
X195949431Y-83563920D01*
X195658280Y-83272769D01*
X195277874Y-83115200D01*
X194866126Y-83115200D01*
X194485720Y-83272769D01*
X194194569Y-83563920D01*
X194037000Y-83944326D01*
X194037000Y-84123098D01*
X193936997Y-84272763D01*
X193878012Y-84569300D01*
X193892901Y-84644152D01*
X193892900Y-89148789D01*
X193775469Y-89266220D01*
X193617900Y-89646626D01*
X184167114Y-89646626D01*
X184278839Y-89479418D01*
X184394092Y-88900000D01*
X184278839Y-88320582D01*
X183950625Y-87829375D01*
X183652239Y-87630000D01*
X183950625Y-87430625D01*
X184278839Y-86939418D01*
X184394092Y-86360000D01*
X184278839Y-85780582D01*
X183950625Y-85289375D01*
X183652239Y-85090000D01*
X183950625Y-84890625D01*
X184278839Y-84399418D01*
X184394092Y-83820000D01*
X184278839Y-83240582D01*
X183950625Y-82749375D01*
X183928967Y-82734904D01*
X184089698Y-82668327D01*
X184268327Y-82489699D01*
X184365000Y-82256310D01*
X184365000Y-81565750D01*
X184206250Y-81407000D01*
X183007000Y-81407000D01*
X183007000Y-81427000D01*
X182753000Y-81427000D01*
X182753000Y-81407000D01*
X181553750Y-81407000D01*
X181395000Y-81565750D01*
X181395000Y-82256310D01*
X181491673Y-82489699D01*
X181670302Y-82668327D01*
X181831033Y-82734904D01*
X181809375Y-82749375D01*
X181481161Y-83240582D01*
X181365908Y-83820000D01*
X181481161Y-84399418D01*
X181809375Y-84890625D01*
X182107761Y-85090000D01*
X181809375Y-85289375D01*
X181481161Y-85780582D01*
X181365908Y-86360000D01*
X181481161Y-86939418D01*
X181809375Y-87430625D01*
X182107761Y-87630000D01*
X181809375Y-87829375D01*
X181481161Y-88320582D01*
X181365908Y-88900000D01*
X181481161Y-89479418D01*
X181809375Y-89970625D01*
X182107761Y-90170000D01*
X181809375Y-90369375D01*
X181685344Y-90555000D01*
X181300804Y-90555000D01*
X181375000Y-90375874D01*
X181375000Y-89964126D01*
X181217431Y-89583720D01*
X180926280Y-89292569D01*
X180545874Y-89135000D01*
X180134126Y-89135000D01*
X179780000Y-89281683D01*
X179780000Y-80303690D01*
X181395000Y-80303690D01*
X181395000Y-80994250D01*
X181553750Y-81153000D01*
X182753000Y-81153000D01*
X182753000Y-79953750D01*
X183007000Y-79953750D01*
X183007000Y-81153000D01*
X184206250Y-81153000D01*
X184365000Y-80994250D01*
X184365000Y-80312126D01*
X190735000Y-80312126D01*
X190735000Y-80723874D01*
X190892569Y-81104280D01*
X191183720Y-81395431D01*
X191564126Y-81553000D01*
X191975874Y-81553000D01*
X192356280Y-81395431D01*
X192423585Y-81328126D01*
X194291000Y-81328126D01*
X194291000Y-81739874D01*
X194448569Y-82120280D01*
X194739720Y-82411431D01*
X195120126Y-82569000D01*
X195531874Y-82569000D01*
X195912280Y-82411431D01*
X196203431Y-82120280D01*
X196361000Y-81739874D01*
X196361000Y-81328126D01*
X196203431Y-80947720D01*
X195912280Y-80656569D01*
X195531874Y-80499000D01*
X195120126Y-80499000D01*
X194739720Y-80656569D01*
X194448569Y-80947720D01*
X194291000Y-81328126D01*
X192423585Y-81328126D01*
X192647431Y-81104280D01*
X192805000Y-80723874D01*
X192805000Y-80312126D01*
X192801506Y-80303690D01*
X200445000Y-80303690D01*
X200445000Y-80994250D01*
X200603750Y-81153000D01*
X201803000Y-81153000D01*
X201803000Y-79953750D01*
X202057000Y-79953750D01*
X202057000Y-81153000D01*
X203256250Y-81153000D01*
X203415000Y-80994250D01*
X203415000Y-80303690D01*
X203318327Y-80070301D01*
X203139698Y-79891673D01*
X202906309Y-79795000D01*
X202215750Y-79795000D01*
X202057000Y-79953750D01*
X201803000Y-79953750D01*
X201644250Y-79795000D01*
X200953691Y-79795000D01*
X200720302Y-79891673D01*
X200541673Y-80070301D01*
X200445000Y-80303690D01*
X192801506Y-80303690D01*
X192647431Y-79931720D01*
X192356280Y-79640569D01*
X191975874Y-79483000D01*
X191564126Y-79483000D01*
X191183720Y-79640569D01*
X190892569Y-79931720D01*
X190735000Y-80312126D01*
X184365000Y-80312126D01*
X184365000Y-80303690D01*
X184268327Y-80070301D01*
X184089698Y-79891673D01*
X183856309Y-79795000D01*
X183165750Y-79795000D01*
X183007000Y-79953750D01*
X182753000Y-79953750D01*
X182594250Y-79795000D01*
X181903691Y-79795000D01*
X181670302Y-79891673D01*
X181491673Y-80070301D01*
X181395000Y-80303690D01*
X179780000Y-80303690D01*
X179780000Y-79450000D01*
X206300000Y-79450000D01*
X206300001Y-93270000D01*
G04 #@! TD*
M02*
