G04 #@! TF.GenerationSoftware,KiCad,Pcbnew,5.0.0*
G04 #@! TF.CreationDate,2018-11-11T14:48:16-05:00*
G04 #@! TF.ProjectId,Pi-Temp_Humidity,50692D54656D705F48756D6964697479,rev?*
G04 #@! TF.SameCoordinates,Original*
G04 #@! TF.FileFunction,Legend,Top*
G04 #@! TF.FilePolarity,Positive*
%FSLAX46Y46*%
G04 Gerber Fmt 4.6, Leading zero omitted, Abs format (unit mm)*
G04 Created by KiCad (PCBNEW 5.0.0) date Sun Nov 11 14:48:16 2018*
%MOMM*%
%LPD*%
G01*
G04 APERTURE LIST*
%ADD10C,0.100000*%
%ADD11C,0.150000*%
%ADD12C,0.200000*%
%ADD13C,0.120000*%
G04 APERTURE END LIST*
D10*
X200305142Y-84239047D02*
X199405142Y-84239047D01*
X199405142Y-83705714D02*
X199405142Y-83553333D01*
X199448000Y-83477142D01*
X199533714Y-83400952D01*
X199705142Y-83362857D01*
X200005142Y-83362857D01*
X200176571Y-83400952D01*
X200262285Y-83477142D01*
X200305142Y-83553333D01*
X200305142Y-83705714D01*
X200262285Y-83781904D01*
X200176571Y-83858095D01*
X200005142Y-83896190D01*
X199705142Y-83896190D01*
X199533714Y-83858095D01*
X199448000Y-83781904D01*
X199405142Y-83705714D01*
D11*
X195625428Y-93371142D02*
X195625428Y-92471142D01*
X195968285Y-92471142D01*
X196054000Y-92514000D01*
X196096857Y-92556857D01*
X196139714Y-92642571D01*
X196139714Y-92771142D01*
X196096857Y-92856857D01*
X196054000Y-92899714D01*
X195968285Y-92942571D01*
X195625428Y-92942571D01*
X196482571Y-93114000D02*
X196911142Y-93114000D01*
X196396857Y-93371142D02*
X196696857Y-92471142D01*
X196996857Y-93371142D01*
X197254000Y-93328285D02*
X197382571Y-93371142D01*
X197596857Y-93371142D01*
X197682571Y-93328285D01*
X197725428Y-93285428D01*
X197768285Y-93199714D01*
X197768285Y-93114000D01*
X197725428Y-93028285D01*
X197682571Y-92985428D01*
X197596857Y-92942571D01*
X197425428Y-92899714D01*
X197339714Y-92856857D01*
X197296857Y-92814000D01*
X197254000Y-92728285D01*
X197254000Y-92642571D01*
X197296857Y-92556857D01*
X197339714Y-92514000D01*
X197425428Y-92471142D01*
X197639714Y-92471142D01*
X197768285Y-92514000D01*
X198111142Y-93328285D02*
X198239714Y-93371142D01*
X198454000Y-93371142D01*
X198539714Y-93328285D01*
X198582571Y-93285428D01*
X198625428Y-93199714D01*
X198625428Y-93114000D01*
X198582571Y-93028285D01*
X198539714Y-92985428D01*
X198454000Y-92942571D01*
X198282571Y-92899714D01*
X198196857Y-92856857D01*
X198154000Y-92814000D01*
X198111142Y-92728285D01*
X198111142Y-92642571D01*
X198154000Y-92556857D01*
X198196857Y-92514000D01*
X198282571Y-92471142D01*
X198496857Y-92471142D01*
X198625428Y-92514000D01*
X192225714Y-93371142D02*
X192225714Y-92471142D01*
X192654285Y-93371142D02*
X192654285Y-92471142D01*
X193168571Y-93371142D01*
X193168571Y-92471142D01*
X193468571Y-92471142D02*
X193982857Y-92471142D01*
X193725714Y-93371142D02*
X193725714Y-92471142D01*
X192350571Y-87688000D02*
X192264857Y-87645142D01*
X192136285Y-87645142D01*
X192007714Y-87688000D01*
X191922000Y-87773714D01*
X191879142Y-87859428D01*
X191836285Y-88030857D01*
X191836285Y-88159428D01*
X191879142Y-88330857D01*
X191922000Y-88416571D01*
X192007714Y-88502285D01*
X192136285Y-88545142D01*
X192222000Y-88545142D01*
X192350571Y-88502285D01*
X192393428Y-88459428D01*
X192393428Y-88159428D01*
X192222000Y-88159428D01*
X192779142Y-88545142D02*
X192779142Y-87645142D01*
X193122000Y-87645142D01*
X193207714Y-87688000D01*
X193250571Y-87730857D01*
X193293428Y-87816571D01*
X193293428Y-87945142D01*
X193250571Y-88030857D01*
X193207714Y-88073714D01*
X193122000Y-88116571D01*
X192779142Y-88116571D01*
X193679142Y-88545142D02*
X193679142Y-87645142D01*
X194279142Y-87645142D02*
X194450571Y-87645142D01*
X194536285Y-87688000D01*
X194622000Y-87773714D01*
X194664857Y-87945142D01*
X194664857Y-88245142D01*
X194622000Y-88416571D01*
X194536285Y-88502285D01*
X194450571Y-88545142D01*
X194279142Y-88545142D01*
X194193428Y-88502285D01*
X194107714Y-88416571D01*
X194064857Y-88245142D01*
X194064857Y-87945142D01*
X194107714Y-87773714D01*
X194193428Y-87688000D01*
X194279142Y-87645142D01*
X195907714Y-87645142D02*
X196079142Y-87645142D01*
X196164857Y-87688000D01*
X196250571Y-87773714D01*
X196293428Y-87945142D01*
X196293428Y-88245142D01*
X196250571Y-88416571D01*
X196164857Y-88502285D01*
X196079142Y-88545142D01*
X195907714Y-88545142D01*
X195822000Y-88502285D01*
X195736285Y-88416571D01*
X195693428Y-88245142D01*
X195693428Y-87945142D01*
X195736285Y-87773714D01*
X195822000Y-87688000D01*
X195907714Y-87645142D01*
X196679142Y-88545142D02*
X196679142Y-87645142D01*
X197022000Y-87645142D01*
X197107714Y-87688000D01*
X197150571Y-87730857D01*
X197193428Y-87816571D01*
X197193428Y-87945142D01*
X197150571Y-88030857D01*
X197107714Y-88073714D01*
X197022000Y-88116571D01*
X196679142Y-88116571D01*
X197450571Y-87645142D02*
X197964857Y-87645142D01*
X197707714Y-88545142D02*
X197707714Y-87645142D01*
X198264857Y-88459428D02*
X198307714Y-88502285D01*
X198264857Y-88545142D01*
X198222000Y-88502285D01*
X198264857Y-88459428D01*
X198264857Y-88545142D01*
D12*
X190080857Y-85632857D02*
X189395142Y-85632857D01*
X189738000Y-85632857D02*
X189738000Y-84432857D01*
X189623714Y-84604285D01*
X189509428Y-84718571D01*
X189395142Y-84775714D01*
X187001142Y-84432857D02*
X186886857Y-84432857D01*
X186772571Y-84490000D01*
X186715428Y-84547142D01*
X186658285Y-84661428D01*
X186601142Y-84890000D01*
X186601142Y-85175714D01*
X186658285Y-85404285D01*
X186715428Y-85518571D01*
X186772571Y-85575714D01*
X186886857Y-85632857D01*
X187001142Y-85632857D01*
X187115428Y-85575714D01*
X187172571Y-85518571D01*
X187229714Y-85404285D01*
X187286857Y-85175714D01*
X187286857Y-84890000D01*
X187229714Y-84661428D01*
X187172571Y-84547142D01*
X187115428Y-84490000D01*
X187001142Y-84432857D01*
D10*
X199448000Y-81889523D02*
X199405142Y-81965714D01*
X199405142Y-82080000D01*
X199448000Y-82194285D01*
X199533714Y-82270476D01*
X199619428Y-82308571D01*
X199790857Y-82346666D01*
X199919428Y-82346666D01*
X200090857Y-82308571D01*
X200176571Y-82270476D01*
X200262285Y-82194285D01*
X200305142Y-82080000D01*
X200305142Y-82003809D01*
X200262285Y-81889523D01*
X200219428Y-81851428D01*
X199919428Y-81851428D01*
X199919428Y-82003809D01*
X200305142Y-81508571D02*
X199405142Y-81508571D01*
X200305142Y-81051428D01*
X199405142Y-81051428D01*
X200305142Y-80670476D02*
X199405142Y-80670476D01*
X199405142Y-80480000D01*
X199448000Y-80365714D01*
X199533714Y-80289523D01*
X199619428Y-80251428D01*
X199790857Y-80213333D01*
X199919428Y-80213333D01*
X200090857Y-80251428D01*
X200176571Y-80289523D01*
X200262285Y-80365714D01*
X200305142Y-80480000D01*
X200305142Y-80670476D01*
X200262285Y-87312380D02*
X200305142Y-87198095D01*
X200305142Y-87007619D01*
X200262285Y-86931428D01*
X200219428Y-86893333D01*
X200133714Y-86855238D01*
X200048000Y-86855238D01*
X199962285Y-86893333D01*
X199919428Y-86931428D01*
X199876571Y-87007619D01*
X199833714Y-87160000D01*
X199790857Y-87236190D01*
X199748000Y-87274285D01*
X199662285Y-87312380D01*
X199576571Y-87312380D01*
X199490857Y-87274285D01*
X199448000Y-87236190D01*
X199405142Y-87160000D01*
X199405142Y-86969523D01*
X199448000Y-86855238D01*
X200219428Y-86055238D02*
X200262285Y-86093333D01*
X200305142Y-86207619D01*
X200305142Y-86283809D01*
X200262285Y-86398095D01*
X200176571Y-86474285D01*
X200090857Y-86512380D01*
X199919428Y-86550476D01*
X199790857Y-86550476D01*
X199619428Y-86512380D01*
X199533714Y-86474285D01*
X199448000Y-86398095D01*
X199405142Y-86283809D01*
X199405142Y-86207619D01*
X199448000Y-86093333D01*
X199490857Y-86055238D01*
X200305142Y-85331428D02*
X200305142Y-85712380D01*
X199405142Y-85712380D01*
X200262285Y-89871428D02*
X200305142Y-89757142D01*
X200305142Y-89566666D01*
X200262285Y-89490476D01*
X200219428Y-89452380D01*
X200133714Y-89414285D01*
X200048000Y-89414285D01*
X199962285Y-89452380D01*
X199919428Y-89490476D01*
X199876571Y-89566666D01*
X199833714Y-89719047D01*
X199790857Y-89795238D01*
X199748000Y-89833333D01*
X199662285Y-89871428D01*
X199576571Y-89871428D01*
X199490857Y-89833333D01*
X199448000Y-89795238D01*
X199405142Y-89719047D01*
X199405142Y-89528571D01*
X199448000Y-89414285D01*
X200305142Y-89071428D02*
X199405142Y-89071428D01*
X199405142Y-88880952D01*
X199448000Y-88766666D01*
X199533714Y-88690476D01*
X199619428Y-88652380D01*
X199790857Y-88614285D01*
X199919428Y-88614285D01*
X200090857Y-88652380D01*
X200176571Y-88690476D01*
X200262285Y-88766666D01*
X200305142Y-88880952D01*
X200305142Y-89071428D01*
X200048000Y-88309523D02*
X200048000Y-87928571D01*
X200305142Y-88385714D02*
X199405142Y-88119047D01*
X200305142Y-87852380D01*
X199405142Y-92392380D02*
X199405142Y-91897142D01*
X199748000Y-92163809D01*
X199748000Y-92049523D01*
X199790857Y-91973333D01*
X199833714Y-91935238D01*
X199919428Y-91897142D01*
X200133714Y-91897142D01*
X200219428Y-91935238D01*
X200262285Y-91973333D01*
X200305142Y-92049523D01*
X200305142Y-92278095D01*
X200262285Y-92354285D01*
X200219428Y-92392380D01*
X199705142Y-91630476D02*
X200305142Y-91440000D01*
X199705142Y-91249523D01*
X199405142Y-91020952D02*
X199405142Y-90525714D01*
X199748000Y-90792380D01*
X199748000Y-90678095D01*
X199790857Y-90601904D01*
X199833714Y-90563809D01*
X199919428Y-90525714D01*
X200133714Y-90525714D01*
X200219428Y-90563809D01*
X200262285Y-90601904D01*
X200305142Y-90678095D01*
X200305142Y-90906666D01*
X200262285Y-90982857D01*
X200219428Y-91020952D01*
X184208000Y-81889523D02*
X184165142Y-81965714D01*
X184165142Y-82080000D01*
X184208000Y-82194285D01*
X184293714Y-82270476D01*
X184379428Y-82308571D01*
X184550857Y-82346666D01*
X184679428Y-82346666D01*
X184850857Y-82308571D01*
X184936571Y-82270476D01*
X185022285Y-82194285D01*
X185065142Y-82080000D01*
X185065142Y-82003809D01*
X185022285Y-81889523D01*
X184979428Y-81851428D01*
X184679428Y-81851428D01*
X184679428Y-82003809D01*
X185065142Y-81508571D02*
X184165142Y-81508571D01*
X185065142Y-81051428D01*
X184165142Y-81051428D01*
X185065142Y-80670476D02*
X184165142Y-80670476D01*
X184165142Y-80480000D01*
X184208000Y-80365714D01*
X184293714Y-80289523D01*
X184379428Y-80251428D01*
X184550857Y-80213333D01*
X184679428Y-80213333D01*
X184850857Y-80251428D01*
X184936571Y-80289523D01*
X185022285Y-80365714D01*
X185065142Y-80480000D01*
X185065142Y-80670476D01*
X185192142Y-84239047D02*
X184292142Y-84239047D01*
X184292142Y-83705714D02*
X184292142Y-83553333D01*
X184335000Y-83477142D01*
X184420714Y-83400952D01*
X184592142Y-83362857D01*
X184892142Y-83362857D01*
X185063571Y-83400952D01*
X185149285Y-83477142D01*
X185192142Y-83553333D01*
X185192142Y-83705714D01*
X185149285Y-83781904D01*
X185063571Y-83858095D01*
X184892142Y-83896190D01*
X184592142Y-83896190D01*
X184420714Y-83858095D01*
X184335000Y-83781904D01*
X184292142Y-83705714D01*
X185149285Y-87312380D02*
X185192142Y-87198095D01*
X185192142Y-87007619D01*
X185149285Y-86931428D01*
X185106428Y-86893333D01*
X185020714Y-86855238D01*
X184935000Y-86855238D01*
X184849285Y-86893333D01*
X184806428Y-86931428D01*
X184763571Y-87007619D01*
X184720714Y-87160000D01*
X184677857Y-87236190D01*
X184635000Y-87274285D01*
X184549285Y-87312380D01*
X184463571Y-87312380D01*
X184377857Y-87274285D01*
X184335000Y-87236190D01*
X184292142Y-87160000D01*
X184292142Y-86969523D01*
X184335000Y-86855238D01*
X185106428Y-86055238D02*
X185149285Y-86093333D01*
X185192142Y-86207619D01*
X185192142Y-86283809D01*
X185149285Y-86398095D01*
X185063571Y-86474285D01*
X184977857Y-86512380D01*
X184806428Y-86550476D01*
X184677857Y-86550476D01*
X184506428Y-86512380D01*
X184420714Y-86474285D01*
X184335000Y-86398095D01*
X184292142Y-86283809D01*
X184292142Y-86207619D01*
X184335000Y-86093333D01*
X184377857Y-86055238D01*
X185192142Y-85331428D02*
X185192142Y-85712380D01*
X184292142Y-85712380D01*
X185149285Y-89871428D02*
X185192142Y-89757142D01*
X185192142Y-89566666D01*
X185149285Y-89490476D01*
X185106428Y-89452380D01*
X185020714Y-89414285D01*
X184935000Y-89414285D01*
X184849285Y-89452380D01*
X184806428Y-89490476D01*
X184763571Y-89566666D01*
X184720714Y-89719047D01*
X184677857Y-89795238D01*
X184635000Y-89833333D01*
X184549285Y-89871428D01*
X184463571Y-89871428D01*
X184377857Y-89833333D01*
X184335000Y-89795238D01*
X184292142Y-89719047D01*
X184292142Y-89528571D01*
X184335000Y-89414285D01*
X185192142Y-89071428D02*
X184292142Y-89071428D01*
X184292142Y-88880952D01*
X184335000Y-88766666D01*
X184420714Y-88690476D01*
X184506428Y-88652380D01*
X184677857Y-88614285D01*
X184806428Y-88614285D01*
X184977857Y-88652380D01*
X185063571Y-88690476D01*
X185149285Y-88766666D01*
X185192142Y-88880952D01*
X185192142Y-89071428D01*
X184935000Y-88309523D02*
X184935000Y-87928571D01*
X185192142Y-88385714D02*
X184292142Y-88119047D01*
X185192142Y-87852380D01*
X184292142Y-92392380D02*
X184292142Y-91897142D01*
X184635000Y-92163809D01*
X184635000Y-92049523D01*
X184677857Y-91973333D01*
X184720714Y-91935238D01*
X184806428Y-91897142D01*
X185020714Y-91897142D01*
X185106428Y-91935238D01*
X185149285Y-91973333D01*
X185192142Y-92049523D01*
X185192142Y-92278095D01*
X185149285Y-92354285D01*
X185106428Y-92392380D01*
X184592142Y-91630476D02*
X185192142Y-91440000D01*
X184592142Y-91249523D01*
X184292142Y-91020952D02*
X184292142Y-90525714D01*
X184635000Y-90792380D01*
X184635000Y-90678095D01*
X184677857Y-90601904D01*
X184720714Y-90563809D01*
X184806428Y-90525714D01*
X185020714Y-90525714D01*
X185106428Y-90563809D01*
X185149285Y-90601904D01*
X185192142Y-90678095D01*
X185192142Y-90906666D01*
X185149285Y-90982857D01*
X185106428Y-91020952D01*
X186144190Y-80117904D02*
X186144190Y-79317904D01*
X186487047Y-79127428D02*
X186563238Y-79089333D01*
X186677523Y-79089333D01*
X186753714Y-79127428D01*
X186791809Y-79203619D01*
X186791809Y-79279809D01*
X186753714Y-79356000D01*
X186487047Y-79622666D01*
X186791809Y-79622666D01*
X187591809Y-80041714D02*
X187553714Y-80079809D01*
X187439428Y-80117904D01*
X187363238Y-80117904D01*
X187248952Y-80079809D01*
X187172761Y-80003619D01*
X187134666Y-79927428D01*
X187096571Y-79775047D01*
X187096571Y-79660761D01*
X187134666Y-79508380D01*
X187172761Y-79432190D01*
X187248952Y-79356000D01*
X187363238Y-79317904D01*
X187439428Y-79317904D01*
X187553714Y-79356000D01*
X187591809Y-79394095D01*
X188506095Y-79889333D02*
X188887047Y-79889333D01*
X188429904Y-80117904D02*
X188696571Y-79317904D01*
X188963238Y-80117904D01*
X189572761Y-80117904D02*
X189572761Y-79317904D01*
X189572761Y-80079809D02*
X189496571Y-80117904D01*
X189344190Y-80117904D01*
X189268000Y-80079809D01*
X189229904Y-80041714D01*
X189191809Y-79965523D01*
X189191809Y-79736952D01*
X189229904Y-79660761D01*
X189268000Y-79622666D01*
X189344190Y-79584571D01*
X189496571Y-79584571D01*
X189572761Y-79622666D01*
X190296571Y-80117904D02*
X190296571Y-79317904D01*
X190296571Y-80079809D02*
X190220380Y-80117904D01*
X190068000Y-80117904D01*
X189991809Y-80079809D01*
X189953714Y-80041714D01*
X189915619Y-79965523D01*
X189915619Y-79736952D01*
X189953714Y-79660761D01*
X189991809Y-79622666D01*
X190068000Y-79584571D01*
X190220380Y-79584571D01*
X190296571Y-79622666D01*
X190677523Y-80117904D02*
X190677523Y-79584571D01*
X190677523Y-79736952D02*
X190715619Y-79660761D01*
X190753714Y-79622666D01*
X190829904Y-79584571D01*
X190906095Y-79584571D01*
D11*
X185712380Y-93117142D02*
X185712380Y-92217142D01*
X186055238Y-92002857D02*
X186131428Y-91960000D01*
X186245714Y-91960000D01*
X186321904Y-92002857D01*
X186360000Y-92088571D01*
X186360000Y-92174285D01*
X186321904Y-92260000D01*
X186055238Y-92560000D01*
X186360000Y-92560000D01*
X187160000Y-93031428D02*
X187121904Y-93074285D01*
X187007619Y-93117142D01*
X186931428Y-93117142D01*
X186817142Y-93074285D01*
X186740952Y-92988571D01*
X186702857Y-92902857D01*
X186664761Y-92731428D01*
X186664761Y-92602857D01*
X186702857Y-92431428D01*
X186740952Y-92345714D01*
X186817142Y-92260000D01*
X186931428Y-92217142D01*
X187007619Y-92217142D01*
X187121904Y-92260000D01*
X187160000Y-92302857D01*
X188112380Y-93117142D02*
X188112380Y-92217142D01*
X188417142Y-92217142D01*
X188493333Y-92260000D01*
X188531428Y-92302857D01*
X188569523Y-92388571D01*
X188569523Y-92517142D01*
X188531428Y-92602857D01*
X188493333Y-92645714D01*
X188417142Y-92688571D01*
X188112380Y-92688571D01*
X189483809Y-92174285D02*
X188798095Y-93331428D01*
X189750476Y-92217142D02*
X189750476Y-92945714D01*
X189788571Y-93031428D01*
X189826666Y-93074285D01*
X189902857Y-93117142D01*
X190055238Y-93117142D01*
X190131428Y-93074285D01*
X190169523Y-93031428D01*
X190207619Y-92945714D01*
X190207619Y-92217142D01*
D13*
G04 #@! TO.C,JP2*
X196104000Y-89724000D02*
G75*
G02X196804000Y-89024000I700000J0D01*
G01*
X197404000Y-89024000D02*
G75*
G02X198104000Y-89724000I0J-700000D01*
G01*
X198104000Y-91124000D02*
G75*
G02X197404000Y-91824000I-700000J0D01*
G01*
X196804000Y-91824000D02*
G75*
G02X196104000Y-91124000I0J700000D01*
G01*
X197404000Y-91824000D02*
X196804000Y-91824000D01*
X198104000Y-89724000D02*
X198104000Y-91124000D01*
X196804000Y-89024000D02*
X197404000Y-89024000D01*
X196104000Y-91124000D02*
X196104000Y-89724000D01*
G04 #@! TO.C,JP4*
X185944000Y-81596000D02*
G75*
G02X186644000Y-80896000I700000J0D01*
G01*
X187244000Y-80896000D02*
G75*
G02X187944000Y-81596000I0J-700000D01*
G01*
X187944000Y-82996000D02*
G75*
G02X187244000Y-83696000I-700000J0D01*
G01*
X186644000Y-83696000D02*
G75*
G02X185944000Y-82996000I0J700000D01*
G01*
X187244000Y-83696000D02*
X186644000Y-83696000D01*
X187944000Y-81596000D02*
X187944000Y-82996000D01*
X186644000Y-80896000D02*
X187244000Y-80896000D01*
X185944000Y-82996000D02*
X185944000Y-81596000D01*
G04 #@! TO.C,JP3*
X190738000Y-81596000D02*
X190738000Y-82996000D01*
X190038000Y-83696000D02*
X189438000Y-83696000D01*
X188738000Y-82996000D02*
X188738000Y-81596000D01*
X189438000Y-80896000D02*
X190038000Y-80896000D01*
X190038000Y-80896000D02*
G75*
G02X190738000Y-81596000I0J-700000D01*
G01*
X188738000Y-81596000D02*
G75*
G02X189438000Y-80896000I700000J0D01*
G01*
X189438000Y-83696000D02*
G75*
G02X188738000Y-82996000I0J700000D01*
G01*
X190738000Y-82996000D02*
G75*
G02X190038000Y-83696000I-700000J0D01*
G01*
G04 #@! TO.C,JP1*
X192040000Y-89724000D02*
G75*
G02X192740000Y-89024000I700000J0D01*
G01*
X193340000Y-89024000D02*
G75*
G02X194040000Y-89724000I0J-700000D01*
G01*
X194040000Y-91124000D02*
G75*
G02X193340000Y-91824000I-700000J0D01*
G01*
X192740000Y-91824000D02*
G75*
G02X192040000Y-91124000I0J700000D01*
G01*
X193340000Y-91824000D02*
X192740000Y-91824000D01*
X194040000Y-89724000D02*
X194040000Y-91124000D01*
X192740000Y-89024000D02*
X193340000Y-89024000D01*
X192040000Y-91124000D02*
X192040000Y-89724000D01*
G04 #@! TO.C,U1*
X196042000Y-81446000D02*
X196042000Y-83196000D01*
X197142000Y-81446000D02*
X196042000Y-81446000D01*
X197142000Y-81446000D02*
X197142000Y-83196000D01*
X196042000Y-83196000D02*
X197142000Y-83196000D01*
X196592000Y-81246000D02*
X195842000Y-81246000D01*
X195842000Y-81246000D02*
X195842000Y-81996000D01*
G04 #@! TO.C,J4*
X203370000Y-79950000D02*
X203370000Y-92770000D01*
X203370000Y-92770000D02*
X206030000Y-92770000D01*
X206030000Y-92770000D02*
X206030000Y-79950000D01*
X206030000Y-79950000D02*
X203370000Y-79950000D01*
X206030000Y-80900000D02*
X212030000Y-80900000D01*
X212030000Y-80900000D02*
X212030000Y-81660000D01*
X212030000Y-81660000D02*
X206030000Y-81660000D01*
X206030000Y-80960000D02*
X212030000Y-80960000D01*
X206030000Y-81080000D02*
X212030000Y-81080000D01*
X206030000Y-81200000D02*
X212030000Y-81200000D01*
X206030000Y-81320000D02*
X212030000Y-81320000D01*
X206030000Y-81440000D02*
X212030000Y-81440000D01*
X206030000Y-81560000D02*
X212030000Y-81560000D01*
X203040000Y-80900000D02*
X203370000Y-80900000D01*
X203040000Y-81660000D02*
X203370000Y-81660000D01*
X203370000Y-82550000D02*
X206030000Y-82550000D01*
X206030000Y-83440000D02*
X212030000Y-83440000D01*
X212030000Y-83440000D02*
X212030000Y-84200000D01*
X212030000Y-84200000D02*
X206030000Y-84200000D01*
X202972929Y-83440000D02*
X203370000Y-83440000D01*
X202972929Y-84200000D02*
X203370000Y-84200000D01*
X203370000Y-85090000D02*
X206030000Y-85090000D01*
X206030000Y-85980000D02*
X212030000Y-85980000D01*
X212030000Y-85980000D02*
X212030000Y-86740000D01*
X212030000Y-86740000D02*
X206030000Y-86740000D01*
X202972929Y-85980000D02*
X203370000Y-85980000D01*
X202972929Y-86740000D02*
X203370000Y-86740000D01*
X203370000Y-87630000D02*
X206030000Y-87630000D01*
X206030000Y-88520000D02*
X212030000Y-88520000D01*
X212030000Y-88520000D02*
X212030000Y-89280000D01*
X212030000Y-89280000D02*
X206030000Y-89280000D01*
X202972929Y-88520000D02*
X203370000Y-88520000D01*
X202972929Y-89280000D02*
X203370000Y-89280000D01*
X203370000Y-90170000D02*
X206030000Y-90170000D01*
X206030000Y-91060000D02*
X212030000Y-91060000D01*
X212030000Y-91060000D02*
X212030000Y-91820000D01*
X212030000Y-91820000D02*
X206030000Y-91820000D01*
X202972929Y-91060000D02*
X203370000Y-91060000D01*
X202972929Y-91820000D02*
X203370000Y-91820000D01*
X200660000Y-81280000D02*
X200660000Y-80010000D01*
X200660000Y-80010000D02*
X201930000Y-80010000D01*
G04 #@! TO.C,J1*
X172790000Y-80070000D02*
X181420000Y-80070000D01*
X172790000Y-80188095D02*
X181420000Y-80188095D01*
X172790000Y-80306190D02*
X181420000Y-80306190D01*
X172790000Y-80424285D02*
X181420000Y-80424285D01*
X172790000Y-80542380D02*
X181420000Y-80542380D01*
X172790000Y-80660475D02*
X181420000Y-80660475D01*
X172790000Y-80778570D02*
X181420000Y-80778570D01*
X172790000Y-80896665D02*
X181420000Y-80896665D01*
X172790000Y-81014760D02*
X181420000Y-81014760D01*
X172790000Y-81132855D02*
X181420000Y-81132855D01*
X172790000Y-81250950D02*
X181420000Y-81250950D01*
X172790000Y-81369045D02*
X181420000Y-81369045D01*
X172790000Y-81487140D02*
X181420000Y-81487140D01*
X172790000Y-81605235D02*
X181420000Y-81605235D01*
X172790000Y-81723330D02*
X181420000Y-81723330D01*
X172790000Y-81841425D02*
X181420000Y-81841425D01*
X172790000Y-81959520D02*
X181420000Y-81959520D01*
X172790000Y-82077615D02*
X181420000Y-82077615D01*
X172790000Y-82195710D02*
X181420000Y-82195710D01*
X172790000Y-82313805D02*
X181420000Y-82313805D01*
X172790000Y-82431900D02*
X181420000Y-82431900D01*
X181420000Y-80920000D02*
X181770000Y-80920000D01*
X181420000Y-81640000D02*
X181770000Y-81640000D01*
X181420000Y-83460000D02*
X181830000Y-83460000D01*
X181420000Y-84180000D02*
X181830000Y-84180000D01*
X181420000Y-86000000D02*
X181830000Y-86000000D01*
X181420000Y-86720000D02*
X181830000Y-86720000D01*
X181420000Y-88540000D02*
X181830000Y-88540000D01*
X181420000Y-89260000D02*
X181830000Y-89260000D01*
X181420000Y-91080000D02*
X181830000Y-91080000D01*
X181420000Y-91800000D02*
X181830000Y-91800000D01*
X172790000Y-82550000D02*
X181420000Y-82550000D01*
X172790000Y-85090000D02*
X181420000Y-85090000D01*
X172790000Y-87630000D02*
X181420000Y-87630000D01*
X172790000Y-90170000D02*
X181420000Y-90170000D01*
X172790000Y-79950000D02*
X181420000Y-79950000D01*
X181420000Y-79950000D02*
X181420000Y-92770000D01*
X172790000Y-92770000D02*
X181420000Y-92770000D01*
X172790000Y-79950000D02*
X172790000Y-92770000D01*
X183990000Y-79950000D02*
X183990000Y-81280000D01*
X182880000Y-79950000D02*
X183990000Y-79950000D01*
G04 #@! TO.C,C1*
X194512000Y-82037422D02*
X194512000Y-82554578D01*
X193092000Y-82037422D02*
X193092000Y-82554578D01*
G04 #@! TO.C,R2*
X189940000Y-90428578D02*
X189940000Y-89911422D01*
X188520000Y-90428578D02*
X188520000Y-89911422D01*
G04 #@! TO.C,R1*
X185980000Y-90428578D02*
X185980000Y-89911422D01*
X187400000Y-90428578D02*
X187400000Y-89911422D01*
G04 #@! TO.C,JP2*
D11*
X194756380Y-91257333D02*
X195470666Y-91257333D01*
X195613523Y-91304952D01*
X195708761Y-91400190D01*
X195756380Y-91543047D01*
X195756380Y-91638285D01*
X195756380Y-90781142D02*
X194756380Y-90781142D01*
X194756380Y-90400190D01*
X194804000Y-90304952D01*
X194851619Y-90257333D01*
X194946857Y-90209714D01*
X195089714Y-90209714D01*
X195184952Y-90257333D01*
X195232571Y-90304952D01*
X195280190Y-90400190D01*
X195280190Y-90781142D01*
X194851619Y-89828761D02*
X194804000Y-89781142D01*
X194756380Y-89685904D01*
X194756380Y-89447809D01*
X194804000Y-89352571D01*
X194851619Y-89304952D01*
X194946857Y-89257333D01*
X195042095Y-89257333D01*
X195184952Y-89304952D01*
X195756380Y-89876380D01*
X195756380Y-89257333D01*
G04 #@! TO.C,JP1*
X190692380Y-91257333D02*
X191406666Y-91257333D01*
X191549523Y-91304952D01*
X191644761Y-91400190D01*
X191692380Y-91543047D01*
X191692380Y-91638285D01*
X191692380Y-90781142D02*
X190692380Y-90781142D01*
X190692380Y-90400190D01*
X190740000Y-90304952D01*
X190787619Y-90257333D01*
X190882857Y-90209714D01*
X191025714Y-90209714D01*
X191120952Y-90257333D01*
X191168571Y-90304952D01*
X191216190Y-90400190D01*
X191216190Y-90781142D01*
X191692380Y-89257333D02*
X191692380Y-89828761D01*
X191692380Y-89543047D02*
X190692380Y-89543047D01*
X190835238Y-89638285D01*
X190930476Y-89733523D01*
X190978095Y-89828761D01*
G04 #@! TO.C,U1*
X195830095Y-79848380D02*
X195830095Y-80657904D01*
X195877714Y-80753142D01*
X195925333Y-80800761D01*
X196020571Y-80848380D01*
X196211047Y-80848380D01*
X196306285Y-80800761D01*
X196353904Y-80753142D01*
X196401523Y-80657904D01*
X196401523Y-79848380D01*
X197401523Y-80848380D02*
X196830095Y-80848380D01*
X197115809Y-80848380D02*
X197115809Y-79848380D01*
X197020571Y-79991238D01*
X196925333Y-80086476D01*
X196830095Y-80134095D01*
G04 #@! TO.C,J4*
X204136666Y-80732380D02*
X204136666Y-81446666D01*
X204089047Y-81589523D01*
X203993809Y-81684761D01*
X203850952Y-81732380D01*
X203755714Y-81732380D01*
X205041428Y-81065714D02*
X205041428Y-81732380D01*
X204803333Y-80684761D02*
X204565238Y-81399047D01*
X205184285Y-81399047D01*
G04 #@! TO.C,J1*
X180006666Y-83272380D02*
X180006666Y-83986666D01*
X179959047Y-84129523D01*
X179863809Y-84224761D01*
X179720952Y-84272380D01*
X179625714Y-84272380D01*
X181006666Y-84272380D02*
X180435238Y-84272380D01*
X180720952Y-84272380D02*
X180720952Y-83272380D01*
X180625714Y-83415238D01*
X180530476Y-83510476D01*
X180435238Y-83558095D01*
G04 #@! TO.C,C1*
X193635333Y-80113142D02*
X193587714Y-80160761D01*
X193444857Y-80208380D01*
X193349619Y-80208380D01*
X193206761Y-80160761D01*
X193111523Y-80065523D01*
X193063904Y-79970285D01*
X193016285Y-79779809D01*
X193016285Y-79636952D01*
X193063904Y-79446476D01*
X193111523Y-79351238D01*
X193206761Y-79256000D01*
X193349619Y-79208380D01*
X193444857Y-79208380D01*
X193587714Y-79256000D01*
X193635333Y-79303619D01*
X194587714Y-80208380D02*
X194016285Y-80208380D01*
X194302000Y-80208380D02*
X194302000Y-79208380D01*
X194206761Y-79351238D01*
X194111523Y-79446476D01*
X194016285Y-79494095D01*
G04 #@! TO.C,R2*
X189063333Y-88082380D02*
X188730000Y-87606190D01*
X188491904Y-88082380D02*
X188491904Y-87082380D01*
X188872857Y-87082380D01*
X188968095Y-87130000D01*
X189015714Y-87177619D01*
X189063333Y-87272857D01*
X189063333Y-87415714D01*
X189015714Y-87510952D01*
X188968095Y-87558571D01*
X188872857Y-87606190D01*
X188491904Y-87606190D01*
X189444285Y-87177619D02*
X189491904Y-87130000D01*
X189587142Y-87082380D01*
X189825238Y-87082380D01*
X189920476Y-87130000D01*
X189968095Y-87177619D01*
X190015714Y-87272857D01*
X190015714Y-87368095D01*
X189968095Y-87510952D01*
X189396666Y-88082380D01*
X190015714Y-88082380D01*
G04 #@! TO.C,R1*
X186523333Y-88082380D02*
X186190000Y-87606190D01*
X185951904Y-88082380D02*
X185951904Y-87082380D01*
X186332857Y-87082380D01*
X186428095Y-87130000D01*
X186475714Y-87177619D01*
X186523333Y-87272857D01*
X186523333Y-87415714D01*
X186475714Y-87510952D01*
X186428095Y-87558571D01*
X186332857Y-87606190D01*
X185951904Y-87606190D01*
X187475714Y-88082380D02*
X186904285Y-88082380D01*
X187190000Y-88082380D02*
X187190000Y-87082380D01*
X187094761Y-87225238D01*
X186999523Y-87320476D01*
X186904285Y-87368095D01*
G04 #@! TD*
M02*
