M48
;DRILL file {KiCad 5.0.1} date Sun 10 Feb 2019 04:30:03 PM EST
;FORMAT={-:-/ absolute / inch / decimal}
FMAT,2
INCH,TZ
T1C0.0157
T2C0.0394
%
G90
G05
M72
T1
X5.9189Y-2.861
X5.9189Y-2.911
X5.9189Y-3.4614
X5.9189Y-3.5114
X5.9189Y-4.0618
X5.9189Y-4.1118
X5.9189Y-4.6622
X5.9189Y-4.7122
X5.9189Y-5.2626
X5.9189Y-5.3126
X5.9189Y-5.863
X5.9189Y-5.913
X6.1089Y-2.521
X6.1089Y-3.1214
X6.1089Y-3.7218
X6.1089Y-4.3222
X6.1089Y-4.9226
X6.1089Y-5.523
X6.4824Y-2.8485
X6.4824Y-3.4489
X6.4824Y-4.0493
X6.4824Y-4.6497
X6.4824Y-5.2501
X6.4824Y-5.8505
X6.4989Y-2.581
X6.4989Y-2.624
X6.4989Y-3.1814
X6.4989Y-3.2244
X6.4989Y-3.7818
X6.4989Y-3.8248
X6.4989Y-4.3822
X6.4989Y-4.4252
X6.4989Y-4.9826
X6.4989Y-5.0256
X6.4989Y-5.583
X6.4989Y-5.626
X7.0213Y-2.861
X7.0213Y-2.911
X7.0213Y-3.4614
X7.0213Y-3.5114
X7.0213Y-4.0618
X7.0213Y-4.1118
X7.0213Y-4.6622
X7.0213Y-4.7122
X7.0213Y-5.2626
X7.0213Y-5.3126
X7.0213Y-5.863
X7.0213Y-5.913
X7.2113Y-2.521
X7.2113Y-3.1214
X7.2113Y-3.7218
X7.2113Y-4.3222
X7.2113Y-4.9226
X7.2113Y-5.523
X7.5848Y-2.8485
X7.5848Y-3.4489
X7.5848Y-4.0493
X7.5848Y-4.6497
X7.5848Y-5.2501
X7.5848Y-5.8505
X7.6013Y-2.581
X7.6013Y-2.624
X7.6013Y-3.1814
X7.6013Y-3.2244
X7.6013Y-3.7818
X7.6013Y-3.8248
X7.6013Y-4.3822
X7.6013Y-4.4252
X7.6013Y-4.9826
X7.6013Y-5.0256
X7.6013Y-5.583
X7.6013Y-5.626
X8.1236Y-2.861
X8.1236Y-2.911
X8.1236Y-3.4614
X8.1236Y-3.5114
X8.1236Y-4.0618
X8.1236Y-4.1118
X8.1236Y-4.6622
X8.1236Y-4.7122
X8.1236Y-5.2626
X8.1236Y-5.3126
X8.1236Y-5.863
X8.1236Y-5.913
X8.3136Y-2.521
X8.3136Y-3.1214
X8.3136Y-3.7218
X8.3136Y-4.3222
X8.3136Y-4.9226
X8.3136Y-5.523
X8.6871Y-2.8485
X8.6871Y-3.4489
X8.6871Y-4.0493
X8.6871Y-4.6497
X8.6871Y-5.2501
X8.6871Y-5.8505
X8.7036Y-2.581
X8.7036Y-2.624
X8.7036Y-3.1814
X8.7036Y-3.2244
X8.7036Y-3.7818
X8.7036Y-3.8248
X8.7036Y-4.3822
X8.7036Y-4.4252
X8.7036Y-4.9826
X8.7036Y-5.0256
X8.7036Y-5.583
X8.7036Y-5.626
T2
X8.9736Y-4.3122
X8.9736Y-4.4122
X8.9736Y-4.5122
X8.9736Y-4.6122
X8.9736Y-4.7122
X8.9736Y-3.7118
X8.9736Y-3.8118
X8.9736Y-3.9118
X8.9736Y-4.0118
X8.9736Y-4.1118
X6.7689Y-4.3122
X6.7689Y-4.4122
X6.7689Y-4.5122
X6.7689Y-4.6122
X6.7689Y-4.7122
X7.1213Y-4.3122
X7.1213Y-4.4122
X7.1213Y-4.5122
X7.1213Y-4.6122
X7.1213Y-4.7122
X7.8713Y-2.511
X7.8713Y-2.611
X7.8713Y-2.711
X7.8713Y-2.811
X7.8713Y-2.911
X8.2236Y-4.3122
X8.2236Y-4.4122
X8.2236Y-4.5122
X8.2236Y-4.6122
X8.2236Y-4.7122
X8.2236Y-2.511
X8.2236Y-2.611
X8.2236Y-2.711
X8.2236Y-2.811
X8.2236Y-2.911
X6.0189Y-5.513
X6.0189Y-5.613
X6.0189Y-5.713
X6.0189Y-5.813
X6.0189Y-5.913
X6.7689Y-4.9126
X6.7689Y-5.0126
X6.7689Y-5.1126
X6.7689Y-5.2126
X6.7689Y-5.3126
X6.0189Y-3.1114
X6.0189Y-3.2114
X6.0189Y-3.3114
X6.0189Y-3.4114
X6.0189Y-3.5114
X8.9736Y-4.9126
X8.9736Y-5.0126
X8.9736Y-5.1126
X8.9736Y-5.2126
X8.9736Y-5.3126
X8.9736Y-5.513
X8.9736Y-5.613
X8.9736Y-5.713
X8.9736Y-5.813
X8.9736Y-5.913
X7.8713Y-4.3122
X7.8713Y-4.4122
X7.8713Y-4.5122
X7.8713Y-4.6122
X7.8713Y-4.7122
X7.8713Y-3.7118
X7.8713Y-3.8118
X7.8713Y-3.9118
X7.8713Y-4.0118
X7.8713Y-4.1118
X7.1213Y-3.7118
X7.1213Y-3.8118
X7.1213Y-3.9118
X7.1213Y-4.0118
X7.1213Y-4.1118
X8.9736Y-2.511
X8.9736Y-2.611
X8.9736Y-2.711
X8.9736Y-2.811
X8.9736Y-2.911
X8.2236Y-3.1114
X8.2236Y-3.2114
X8.2236Y-3.3114
X8.2236Y-3.4114
X8.2236Y-3.5114
X8.2236Y-4.9126
X8.2236Y-5.0126
X8.2236Y-5.1126
X8.2236Y-5.2126
X8.2236Y-5.3126
X6.0189Y-3.7118
X6.0189Y-3.8118
X6.0189Y-3.9118
X6.0189Y-4.0118
X6.0189Y-4.1118
X6.0189Y-2.511
X6.0189Y-2.611
X6.0189Y-2.711
X6.0189Y-2.811
X6.0189Y-2.911
X7.8713Y-4.9126
X7.8713Y-5.0126
X7.8713Y-5.1126
X7.8713Y-5.2126
X7.8713Y-5.3126
X7.1213Y-5.513
X7.1213Y-5.613
X7.1213Y-5.713
X7.1213Y-5.813
X7.1213Y-5.913
X6.7689Y-2.511
X6.7689Y-2.611
X6.7689Y-2.711
X6.7689Y-2.811
X6.7689Y-2.911
X6.0189Y-4.9126
X6.0189Y-5.0126
X6.0189Y-5.1126
X6.0189Y-5.2126
X6.0189Y-5.3126
X7.8713Y-3.1114
X7.8713Y-3.2114
X7.8713Y-3.3114
X7.8713Y-3.4114
X7.8713Y-3.5114
X7.1213Y-3.1114
X7.1213Y-3.2114
X7.1213Y-3.3114
X7.1213Y-3.4114
X7.1213Y-3.5114
X8.2236Y-5.513
X8.2236Y-5.613
X8.2236Y-5.713
X8.2236Y-5.813
X8.2236Y-5.913
X6.7689Y-3.1114
X6.7689Y-3.2114
X6.7689Y-3.3114
X6.7689Y-3.4114
X6.7689Y-3.5114
X8.9736Y-3.1114
X8.9736Y-3.2114
X8.9736Y-3.3114
X8.9736Y-3.4114
X8.9736Y-3.5114
X8.2236Y-3.7118
X8.2236Y-3.8118
X8.2236Y-3.9118
X8.2236Y-4.0118
X8.2236Y-4.1118
X7.1213Y-2.511
X7.1213Y-2.611
X7.1213Y-2.711
X7.1213Y-2.811
X7.1213Y-2.911
X6.7689Y-5.513
X6.7689Y-5.613
X6.7689Y-5.713
X6.7689Y-5.813
X6.7689Y-5.913
X6.0189Y-4.3122
X6.0189Y-4.4122
X6.0189Y-4.5122
X6.0189Y-4.6122
X6.0189Y-4.7122
X7.1213Y-4.9126
X7.1213Y-5.0126
X7.1213Y-5.1126
X7.1213Y-5.2126
X7.1213Y-5.3126
X7.8713Y-5.513
X7.8713Y-5.613
X7.8713Y-5.713
X7.8713Y-5.813
X7.8713Y-5.913
X6.7689Y-3.7118
X6.7689Y-3.8118
X6.7689Y-3.9118
X6.7689Y-4.0118
X6.7689Y-4.1118
T0
M30
